<?xml version="1.0" encoding="UTF-8"?>
<!DOCTYPE svg PUBLIC "-//W3C//DTD SVG 1.1//EN" "http://www.w3.org/Graphics/SVG/1.1/DTD/svg11.dtd">
<!-- Creator: CorelDRAW 2020 (64-Bit) -->
<svg xmlns="http://www.w3.org/2000/svg" xml:space="preserve" width="74.929mm" height="67.5783mm" version="1.1" style="shape-rendering:geometricPrecision; text-rendering:geometricPrecision; image-rendering:optimizeQuality; fill-rule:evenodd; clip-rule:evenodd"
viewBox="0 0 9479.64 8549.67"
 xmlns:xlink="http://www.w3.org/1999/xlink"
 xmlns:xodm="http://www.corel.com/coreldraw/odm/2003">
 <defs>
  <style type="text/css">
   <![CDATA[
    .fil64 {fill:#1B0606}
    .fil19 {fill:#2B020B}
    .fil43 {fill:#2E0109}
    .fil34 {fill:#31010A}
    .fil44 {fill:#34020C}
    .fil27 {fill:#36010A}
    .fil95 {fill:#390307}
    .fil92 {fill:#390513}
    .fil1 {fill:#420A11}
    .fil16 {fill:#4A010D}
    .fil73 {fill:#4B0212}
    .fil2 {fill:#4E0111}
    .fil94 {fill:#510111}
    .fil77 {fill:#540214}
    .fil70 {fill:#541127}
    .fil12 {fill:#550111}
    .fil88 {fill:#59041B}
    .fil5 {fill:#5A0111}
    .fil71 {fill:#5C0215}
    .fil23 {fill:#630212}
    .fil31 {fill:#64021A}
    .fil24 {fill:#650115}
    .fil38 {fill:#690524}
    .fil28 {fill:#6A0116}
    .fil32 {fill:#6B011B}
    .fil69 {fill:#6D0116}
    .fil3 {fill:#6E0119}
    .fil51 {fill:#6F283D}
    .fil87 {fill:#72011A}
    .fil54 {fill:#730116}
    .fil49 {fill:#74021D}
    .fil60 {fill:#740222}
    .fil39 {fill:#741232}
    .fil0 {fill:#76011A}
    .fil15 {fill:#79011A}
    .fil62 {fill:#79052A}
    .fil74 {fill:#7B0223}
    .fil22 {fill:#7C021A}
    .fil41 {fill:#820223}
    .fil52 {fill:#84011C}
    .fil81 {fill:#85062B}
    .fil13 {fill:#860121}
    .fil67 {fill:#881537}
    .fil26 {fill:#890735}
    .fil93 {fill:#8A0222}
    .fil75 {fill:#8B011D}
    .fil10 {fill:#8D0225}
    .fil21 {fill:#93011D}
    .fil9 {fill:#930124}
    .fil59 {fill:#932B4D}
    .fil8 {fill:#94022B}
    .fil66 {fill:#950B44}
    .fil50 {fill:#970939}
    .fil82 {fill:#970A2B}
    .fil42 {fill:#97143A}
    .fil68 {fill:#981645}
    .fil83 {fill:#9B011D}
    .fil4 {fill:#9B022C}
    .fil72 {fill:#9C0233}
    .fil58 {fill:#A25568}
    .fil29 {fill:#A30124}
    .fil85 {fill:#A3022B}
    .fil6 {fill:#A30233}
    .fil30 {fill:#A3033B}
    .fil33 {fill:#A71648}
    .fil40 {fill:#A80644}
    .fil14 {fill:#AA0325}
    .fil91 {fill:#AA063A}
    .fil56 {fill:#AB0234}
    .fil90 {fill:#AC143A}
    .fil65 {fill:#AF2A54}
    .fil80 {fill:#B11753}
    .fil78 {fill:#B61549}
    .fil57 {fill:#B63565}
    .fil11 {fill:#B70228}
    .fil20 {fill:#B70337}
    .fil18 {fill:#B70644}
    .fil37 {fill:#C5022A}
    .fil25 {fill:#C60544}
    .fil17 {fill:#C70237}
    .fil84 {fill:#CC2A56}
    .fil61 {fill:#CF3368}
    .fil47 {fill:#D04A72}
    .fil45 {fill:#D11351}
    .fil36 {fill:#D7023A}
    .fil48 {fill:#D70547}
    .fil86 {fill:#DF678E}
    .fil55 {fill:#E9033C}
    .fil46 {fill:#E90447}
    .fil53 {fill:#EF4976}
    .fil79 {fill:#F31F5F}
    .fil76 {fill:#F36B91}
    .fil35 {fill:#F42E6A}
    .fil63 {fill:#F45487}
    .fil7 {fill:#F50749}
    .fil89 {fill:#FA1657}
   ]]>
  </style>
 </defs>
 <g id="Capa_x0020_1">
  <metadata id="CorelCorpID_0Corel-Layer"/>
  <path class="fil0" d="M4243.07 7947.62c44.94,-1.42 26.56,-7.24 26.85,26.58 -38.03,1.33 -28.82,7.83 -26.85,-26.58zm-2065.58 -1166.1c-30.41,0.72 -8.73,15.41 -27.81,-17.28 33.02,-10.49 27.59,-15.68 27.81,17.28zm2494.17 -462.53c-91.7,42.72 -156.46,-99.81 -105.13,-148.64 47.03,-44.74 67.51,20.22 76.54,53.35 13.73,50.35 37.64,57.48 28.59,95.29zm-2858.26 -1977.56c-474.71,-553.58 -522.72,-1125.62 -468.92,-1834.11 107.11,-1410.46 -522.23,402.72 -728.18,-332.86 -3.91,30.87 -32.82,141.15 -43.42,172.19 -9.13,26.75 -21.15,51.43 -31.2,75.66 -18.7,45.15 -7.78,52.55 -63.89,48.28l-10.87 -8.26c-8.32,21.41 3.15,9.22 -13.01,24.51 66.19,102.6 -53.39,263.52 -141.52,195.67 10.97,-33.53 20.81,-30.34 55.16,-42.13 -89.04,20.56 -111.42,83.28 -170.09,93.03 -14.65,74.77 -49.85,32.89 -50.47,152.7 -0.35,67.94 13.12,108.6 -13.87,172.64l-85.68 132.4c-70.71,361.39 -70,784.38 54.31,1132.73 104.77,293.54 291.93,562.32 413.72,840.54 54.89,22.01 19.14,13.66 57.74,52.93l-466.08 -991.8c-61.78,-90.57 -41.13,-116.9 -65.56,-211.47 -20.57,-79.63 -44.62,-163.52 -0.19,-238.3 -0.19,-16.51 80.63,-905.7 134.08,-592.57 29.55,173.19 23.06,487.17 101.5,632.63 128.58,238.46 372.42,223.99 565.45,366.79 211.6,156.54 241.73,402.17 589.66,250.6l49.29 -4.15c33.1,-30.03 46.84,-28.77 88.86,-43.55 129.31,384.64 -374.48,1211.14 216.66,2076.69 194.86,285.3 538.69,542.86 898.61,526.8 497.9,-22.23 306.99,205.04 657.84,501.4l0.18 25.85c105.06,-90.99 183.46,138.76 40.47,185.75 -174.54,57.37 -240.95,-133.11 -448.2,-131.49 -677.21,5.3 -286.56,-22.99 -331.15,370.55 51.85,59.68 67.57,101.72 142.56,143.58 50.21,28.02 25.63,30.73 87.35,52.38 97.82,139.31 249.88,242.73 397.75,299.98 96.43,37.33 387.55,155.47 664.12,96.4 354.15,-75.63 708.03,-342.55 850.16,-379.62 1102.96,-857.33 203.01,-749.37 -170.09,-1196.62 -132.17,-158.45 79.77,-512.4 20.98,-580.74 -113.89,-132.42 -669.77,176.07 -815.58,220.12 -730.73,220.78 -1575.23,296.02 -1899.31,-548.15 -419.69,-1093.22 572.66,-231.46 909.28,-38.95 -102.84,-50.06 -95.53,21.62 -205.47,-99.59 -63.47,-69.96 -107.4,-86.98 -52.12,-185.14l84.08 -147.42 79.07 -108.28c-364.34,351.94 -492.11,-378.61 -546.32,-527.85 -193.01,-531.29 381.37,376.86 499.47,-330.01 -87.73,-86.59 -359.63,-405.35 -400.28,-508.21 -50.56,-127.94 8.67,-304.29 7.14,-244.02 -4.23,165.46 -27.48,184.02 67.81,333.01 33.72,-17.03 1.37,-12.46 42.69,-6.88l-13.41 36.21 55.07 51.83 899.95 421.98c-159.26,-127.01 -569.96,-352.69 -608.52,-538.33 -108.51,-522.47 -208.13,-497.79 172.44,-347.11 -22.47,-32.97 -14.85,-26.61 -53.55,-39.6 -93.95,-50.53 -144.14,-184.12 -42.52,-253.02l-49.95 -74.97 -16.09 -16.56c-124.92,-130.82 -204.5,-167.43 -254.88,-362.17 -15.4,-22.2 -30.63,-105.42 -18.32,-132.88 11.77,-26.25 47.44,-79.17 67.46,-98.74l1.21 -137.9 -104.91 -7.55 16.71 15.04 -421.28 800.27c13.9,61.69 29.92,70.96 35.55,142.81l63.23 92.01 102.3 50.11c-38.81,21.96 -91.91,-4.62 -120.61,-35.97 -26.76,-49.4 -45.96,-32.83 -53.02,-95.67 -63.81,-197.4 -133.4,-374.91 -83.64,-590.82 24.39,-105.84 149.12,-393.83 214.01,-476.32l347.2 -251.54c1.95,-155.55 -13.51,-247.55 116.06,-356.44l315.33 -217.85 818.65 -389.63 1090.58 -140.08 -4.59 -7.51c298.6,17.69 850.37,306.18 694.43,-123.79 -86.88,-239.54 -170.63,-640.43 1.18,-855.86l-206.12 -1.95c-674.17,126.77 -1033.07,112.32 -1408.59,713.29 -168.19,269.19 -963.77,354.28 -1302.14,468.33 -1157.09,389.98 -613.53,2602.34 -803.74,2916.76z"/>
  <path class="fil1" d="M7601.96 5469.84c-33.87,69.82 -119.03,198.72 -186.85,236.17l-28.61 15.93c-84.85,112.36 -298.17,143.59 -424.57,247.35 -353,260.77 -1418.89,906.43 -1808.04,437.77 -251.46,-302.83 1153.53,-382.58 937.89,-778.29l-567.98 67.29c-216.15,144.68 -783.04,271.75 -785.18,482.58 -2.3,226.44 57.34,643.56 282.8,736.73 251.4,103.89 686.37,-85.65 430.32,526.59 -165.61,395.98 -283.48,575.2 -705.18,711.84 1559.95,497.44 2216.71,-190.8 2234.79,-198.81 651.83,-1212.43 807.73,-2429.73 766.95,-2657.17 -33.29,59.3 -82.23,146.72 -146.34,172.02z"/>
  <path class="fil2" d="M5673.15 3015.13l-36.15 122.43c214.08,-40.73 501.14,777.35 354.75,863.09 -179.64,105.22 -381.81,55.19 -331.95,-221.55 46.66,-258.94 -19.58,-342.16 -46.52,-583.6l-30.36 45.15c-3.1,90.04 1.89,137.56 -15.43,230.52 -20.79,111.55 -56.56,100.97 -84.32,184.85 -53.48,161.58 -145.59,184.47 -146.88,369.68l35.11 9.24 56.91 -5.55c96.32,3.43 202.45,25.97 295.13,19.47 105.34,-7.39 190.24,-12.66 294.35,12.63 89.67,105.59 -383.49,199.25 -498.7,232.15 -222.91,63.65 -606.07,271.18 -736.29,280.14 -559.25,38.52 -1128.43,-183.17 -1518.45,-582.55 -98.28,-31.29 -116.8,-41.78 -207.08,-84.15 -59.23,-27.8 -130.46,-75.62 -183.83,-97.44 -380.57,-150.68 -280.95,-175.36 -172.44,347.11 38.56,185.65 449.27,411.33 608.52,538.33l973.92 634.9c58.12,7.1 80.81,11.77 93.3,71.2l-0.68 6.59c52.93,31.87 94.39,53.48 62.46,120.77 -62.16,21.37 -170.29,-43.94 -205.89,-96.11l-21.09 -2.26 -640.57 58.18 -0.48 24.8 78.64 72.76 137.67 36.37 5.48 -11.01 32.27 33.63c45.61,-5.26 128.03,8.98 161.99,37.55 93.72,8.74 158.19,29.15 247.39,45.37 93.42,16.98 188.99,18.07 283.61,23.24 209.61,11.49 331.39,63.56 545.39,-6.59 -780.55,-3.42 207,-326.76 437.98,-645.01 88.72,-122.25 265.14,-436.77 373.38,-503.55 308.73,-190.47 271.65,218.39 170.06,422.98 69.29,-55.64 110.5,-165.3 176.1,-234.7 316.09,-691.82 56.64,-470.33 -84.31,-1045.67 -22.34,-91.23 -352.13,-1036.35 -463.01,-723.37z"/>
  <path class="fil3" d="M7360.7 2225.64c31.31,33.88 32.15,50.44 43.69,94.39 18.37,54.86 73.94,79.38 100.96,160.43 25.25,75.71 27.2,144.81 49.62,213.65l30.05 96.21 7.86 -32.54 501.78 164.13 -4.55 0.78c3.63,11.36 942.11,412.92 526.77,942.83 -51.92,116.71 -130.26,294.58 -209.24,392.25l-4.15 25.81 184.98 -18.48 1.63 13.82 69.12 255.51 23.96 13.18 344.49 -129.46 8.07 0.2c228.03,-431.69 383.45,-351.13 439.23,-933.43 18.84,-196.59 -26.61,-361.78 -8.62,-559.58 26.57,-292.1 -7.16,-336.05 -53.24,-604.35l-86.61 -177.82 -4.62 -6.83 -168.56 -152.6c-107.66,158.28 -740.47,674.69 -889.72,458.3 -115.6,-167.62 -101.52,-408.82 -395.95,-379.99 -327.08,32.02 -375.31,-235 -506.95,163.58z"/>
  <path class="fil4" d="M1275.52 7128.42c26.15,-27.35 2.54,-18.81 30.06,-8.59 -20.13,26.43 2.35,14.27 -30.06,8.59zm297.41 -2681.48l-72.58 93.86c-76.49,237.61 -201.55,410.6 -293.6,626.6 -77.21,181.18 -69.08,555.49 -91.71,768.26 -22.44,211 14.11,508.4 -41.19,693.37 -77.76,260.13 -254.66,182.67 -320.69,-39.97 15.75,88.85 36.96,229.94 71.37,311.24 22.87,54.05 103.24,198.45 146.09,233.8l26.81 31.33 187.56 180.56c45.31,4.06 71.18,0.72 117.27,14.31 74.47,21.94 51.11,36.27 91.65,62.79 66.43,43.45 135.65,-36.66 241.43,41.5 38.95,27.25 131.46,84.61 149.68,124.91 32.67,72.24 111.71,79.5 187.36,89.13 108.94,13.87 386.78,45.57 443.61,153.27 71.96,36.55 110.23,106.55 188.67,109.17 44.6,-393.54 -346.06,-365.25 331.15,-370.55 207.26,-1.62 273.66,188.86 448.2,131.49 142.99,-46.99 64.59,-276.74 -40.47,-185.75l-31.93 -10.03 31.76 -15.81c-350.85,-296.36 -159.94,-523.63 -657.84,-501.4 -359.92,16.07 -703.75,-241.49 -898.61,-526.8 -591.14,-865.55 -87.35,-1692.05 -216.66,-2076.69 46.17,-6.16 62.95,-18.18 97.35,10.26 -16.08,39.32 -51.52,42.94 -94.66,51.16z"/>
  <path class="fil5" d="M4746.56 8153.79c421.7,-136.64 539.57,-315.86 705.18,-711.84 256.05,-612.24 -178.92,-422.7 -430.32,-526.59 -225.46,-93.18 -285.1,-510.3 -282.8,-736.73 2.14,-210.82 569.03,-337.9 785.18,-482.58l-181.25 41.18c-79.4,86.12 -93.39,103.44 -216,112.5 -83.96,6.2 -183.21,25.7 -263.96,11.39 -210.09,-37.21 -333.77,24.46 -539.35,50.58 -164.52,22.58 -522.92,69.68 -663.27,138.95 -160.16,10.07 -313.42,2.18 -472.84,15.75 -214,18.23 -203.61,0.33 -395.31,-56.94 -336.62,-192.51 -1328.96,-1054.26 -909.28,38.95 324.08,844.17 1168.58,768.93 1899.31,548.15 145.81,-44.05 701.69,-352.55 815.58,-220.12 58.79,68.34 -153.15,422.29 -20.98,580.74 373.09,447.24 1273.04,339.29 170.09,1196.62z"/>
  <path class="fil6" d="M3135.22 902c48.59,-11.63 98.47,-15.65 140.71,10.68 -16.73,75.15 -212.95,88.36 -140.71,-10.68zm1510.23 -856.75l-13.42 42.99c-83.36,46.68 -94.44,19.45 -158.8,39.18 -62.45,19.15 -66.34,56.31 -155.08,29.91 -135.31,88.45 -293.22,188.82 -435.52,263.86 -135.9,71.67 -262.66,187.07 -409.69,201.7 -205.31,20.43 -446.12,-3.78 -663.77,11.72 -195.83,13.94 -382.25,69.08 -570.42,122.19l-230.35 150.48c-17.08,50.83 -71.66,88.66 -119.51,111l-296.18 264c-68.63,105.07 -115.77,84.73 -216.37,137.71 -87.03,45.85 -136.26,89.03 -206.9,154.58 -28.43,26.38 -65.14,63.35 -88.86,93.6 -28.02,35.75 -41.79,79.12 -72.04,110.88 -69.43,72.91 -64.67,-5.45 -196.9,175.64 -44.86,30.77 -53.73,70.57 -86.32,107.21 -27.92,31.4 -77.2,79.4 -109.03,112.57 205.95,735.58 835.29,-1077.6 728.18,332.86 -53.81,708.5 -5.79,1280.53 468.92,1834.11 -174.77,-747.18 -374.1,-1571.75 -7.73,-2288.06 142.96,-279.52 274.73,-1016.83 740.57,-974.81 62.95,5.68 -74.02,224.49 62.27,183.66 285.75,-85.63 624.34,-170.82 889.5,-296.69 521.75,-247.65 469.07,-643.58 1791.27,-781.58 -270.02,-160.27 -304.23,-175.55 -638.34,-140.41l-5.48 1.71z"/>
  <path class="fil7" d="M7185.2 2692.71c-25.4,-73.73 39.16,-120.94 105.03,-104.21 8.74,43.5 7.17,7.07 -18.4,61.35 -25.04,53.14 -18.61,66.9 -86.64,42.86zm-1153.5 -1018.64c34.93,15.26 46.05,66.45 72.04,98.21 30.55,37.33 81.83,26.33 135.43,35.84l15.8 36.7 133.63 152.8c176.75,47.96 249.21,240.4 406.59,313.76 106.77,49.75 156.89,-14.95 209.56,86.42 67.1,129.16 72.86,85.95 105.78,250.4l-97.71 516.38 -15.46 74.56c-13.5,80.91 -84.45,171.4 -148.83,215.15l-37.69 77.35c-4.57,75.44 -18.17,149.55 -70.61,206.37l5.43 -4.11 -46.63 145.77c-28.87,196.47 -269.58,629.96 -240.63,780.36 40.78,20.69 47.77,39.27 94.91,26.43 35.31,-9.63 65.81,-21.62 91.53,-46.9 58.85,-57.8 62.44,-67.65 143.04,-92.58 29.84,-76.31 46,-61.11 86.79,-127.19 22.54,-36.52 102.15,-100.14 141.51,-117.04l7.35 -18.45c7.69,-93.89 51.63,-153.22 133.08,-197.01 22.87,-62.61 50,-133.47 84.65,-190.39 38.74,-63.67 72.52,-87.86 103.46,-163.38 53.29,-130.03 130.78,-264.83 152.22,-403.09 7.29,-85.75 6.58,-214.49 3.52,-301.35 -9.06,-256.76 11.44,-169.78 15.28,-304.41 1.86,-65 -22.13,-220.38 -53.19,-277.5 -51.63,-94.92 -102.39,-69.34 -134.03,-201.21 -140.46,-232.12 -275.68,-549.02 -505.04,-707.18 -187.28,-129.16 -723.02,-77.01 -694.16,-271.36l-347.35 64.17 -36.82 64.65 286.53 277.81z"/>
  <path class="fil4" d="M5533.98 245c-171.81,215.43 -88.05,616.32 -1.18,855.86 155.94,429.97 -395.83,141.48 -694.43,123.79 260.22,58.64 620.42,219.2 859.48,98.78 217.56,-109.59 296.8,-403.14 592.37,-458.84 116.74,-22 589.88,142.23 680.16,218.43 268.22,226.34 219.38,372.92 221.41,682.46l11.85 56.53c23.16,31.26 25.33,61.41 33.73,100.54l42.1 83.47 43.47 62.17c129.16,-385.33 -111.48,-648.26 380.19,-491.55 408.57,130.22 555.21,-134.85 910.09,-125.3l-15.09 -34.13 -17.02 -68.09 -28.61 -45.43c-229.8,-179.39 -549.66,-83.82 -820.92,-130.55 -142.84,-24.62 -210.86,-77 -380.37,-77.55 -183.9,-0.61 -186.75,87.42 -236.57,-151.94l3.11 -15.88c-175.64,-184.32 -477.68,-387.67 -717.57,-472.32 -74.34,-26.23 -137.04,-64.27 -209.77,-88.17 -73.48,-24.14 -150.62,-42.46 -217.3,-83.11 -164.65,-100.34 -254.61,-125.1 -439.15,-39.17z"/>
  <path class="fil8" d="M2843.44 3518.62c-0.01,-2.38 26.06,-18.09 17.95,-0.43 -6.09,13.25 -17.94,4.09 -17.95,0.43zm431.19 -1530.01c-29.77,-36.27 -15.97,-21.37 10.34,-38.13 20.08,38.22 22.71,20.1 -10.34,38.13zm477.76 -616.37l40.36 15.7c-18.43,36.87 -0.91,28.24 -46.87,18.65l6.52 -34.35zm0 0l-818.65 389.63 159.46 -18.98 31.1 34.25 -614.42 824c11.02,107.32 33.24,135.8 14.69,256.7 -24.42,40.5 -45.55,74.62 -48.67,121.95 -6.67,223.05 159.41,288.63 253.68,441.02l6.68 15.85c37.18,16.85 48.53,34.88 73.06,66.37l54.92 71.33c80.45,38.61 114.14,83.45 181.46,129.85 60.04,41.4 120.71,85.38 181.45,125.1l175.78 111.23 21.74 25.48 -34.84 30.82c68.76,0.97 210.1,58.77 308.41,68.09l-314.69 -235.62 -163.32 -123.61 -75.18 -51.99c-51.59,-46.65 -143,-106.06 -177.69,-160.79 -16.76,-26.45 -100.67,-203.44 -107.69,-230.4 -12.32,-47.35 12.26,-245.58 18.19,-306.85 9.01,-93.08 3.57,-191.28 104.86,-133.37 -24.78,-122.5 5.28,-217.82 -8.13,-297.93 28.58,-117.9 55.31,-189.18 98.35,-300.55 49.16,-127.22 118.71,-202.51 111.48,-142.47 -2.25,18.75 -90.65,190.86 -108.46,245.97 -28.12,87.05 -18.9,143.52 -79.44,216.48 -37.21,152.08 39.38,441.35 50.87,606.75 29.79,23.46 48.04,49.08 52.66,87.02 47.04,21.33 44.17,40.42 68.62,83.79l58.32 87.42c47.97,30.07 88.52,95.15 90.66,152.44l-75.73 -74.69 61.14 97.92 -7.14 4.66 63.02 47.38c66.94,32.74 66.29,99.74 138.14,84.26 17.85,-61.26 -0.32,-71.73 -24.16,-125.88l-132.61 -228.36 0.51 -43.26 -72.85 -143.66 -32.72 -32.79c-33.29,-23.89 -45.12,-38.07 -46.54,-80.25 -30.82,-53.39 -55.59,-158.84 -68.6,-220.77 -27.15,-129.24 22.24,-98.4 32.25,-211.19 -1.34,-162.47 47.96,-205.87 158.68,-304.95 56.72,-50.76 9.98,-54.63 109.54,-109.88 62.26,-34.56 83.84,-74.14 94.91,30.35 27.26,51.91 48.3,60.88 29.96,123.79 49.16,-35.46 -2.58,-116.6 -6.88,-184.17 -11.01,-45.53 -10.2,-88.33 11.87,-130.11 17.32,-32.78 34.77,-80.92 50.73,-105.45l11.61 -62.14c19.91,-51.19 28.43,-100.39 77.91,-132.08 28.28,-18.1 93.01,-55.68 121.2,-33.79 -4.44,48.34 -126.24,54.05 -159.98,196.36l482.6 -210.38 78.25 -67.14 -309.27 66.66c-43.17,15.6 -28.78,17.95 -68.61,5.36 -2.07,-58.12 82.74,-61.3 135.9,-81.75l310.4 -237.78 561.8 -165.34 -1090.58 140.08z"/>
  <path class="fil9" d="M6218.84 2212.1c11.27,52.29 -0.19,67.75 -45.81,31.83 7.89,-47.33 20.9,-32.12 45.81,-31.83zm-839.19 -544.48l102.1 104.97c79.3,6.6 80.46,74.11 103.03,132.46l86.51 15.95 65.85 32.01c144.67,67.57 257.13,179.61 384.29,262.97 39.3,38.74 131.93,112.19 150.93,156.3 67.86,43.2 33.11,63.32 87.18,113.47 69.37,-147.42 474.36,189.25 484.88,614.43 4.42,178.21 -217.61,1137.94 -207.17,335.18 -105.78,133.14 -192.09,18.41 -272.77,-82.49 -93,-116.31 -159.31,-187.14 -272.7,-284.27 -111.17,-95.23 -159.7,-199.62 -244.05,-314.11 -101.77,-138.13 -183.73,-142.33 -308.53,-238.83l-446.37 -279.26 -39.79 54.93 139.38 349.09c31.72,76.92 28.88,213.3 4.17,293.41l-82.66 274.58 30.57 -47.56c15.99,-44.41 33.62,-87.5 53.01,-130.26 21.09,-46.48 23.15,-78.52 40.18,-125.33l-1.3 -448.72c-36.34,-10.08 -71.92,-21.44 -90.26,-51.81 5.57,-42.6 12.78,-53.47 57.12,-66.72l79.06 66.34 -0.29 10.42c59.93,39.64 65.5,23.89 65.66,103.89l24.32 -44.57c26.1,9.21 115.57,119.13 152.18,143.48 55.77,37.09 56.34,35.54 59.5,107.8 2.68,61.56 5.5,87.89 -20.94,143.86l3.86 164.32 10.84 -37.3c8.16,-41.45 12.03,-79.58 22.85,-119.97 15.18,-56.7 -4.57,-71.99 21.06,-108.41 45.9,8.5 33.41,19.57 51.99,63.84l9.69 14.97 762.25 1461.17 300.36 -573.96 -5.43 4.11c2.49,-62.25 25.61,-164.28 70.61,-206.37l37.69 -77.35c16.12,-66.9 93.36,-125.87 121.44,-213.08 9.73,-108.94 66.33,-270.83 32.62,-364.27 -54.3,-150.5 6.01,-233.43 -59.26,-358.35 -177.3,-166.68 -560.16,-420.84 -780.53,-602.5 -150.74,-124.28 -143.63,-276.28 -291.79,-174.02 -141.08,97.37 -342.46,-30.38 -491.35,-74.45z"/>
  <path class="fil10" d="M1813.39 4341.44c190.2,-314.43 -353.36,-2526.78 803.74,-2916.76 338.38,-114.05 1133.95,-199.15 1302.14,-468.33 375.52,-600.97 734.42,-586.52 1408.59,-713.29l-38.59 -59.1c-1322.21,138 -1269.53,533.93 -1791.27,781.58 -265.16,125.87 -603.75,211.06 -889.5,296.69 -136.29,40.83 0.68,-177.98 -62.27,-183.66 -465.84,-42.02 -597.61,695.29 -740.57,974.81 -366.37,716.32 -167.04,1540.88 7.73,2288.06z"/>
  <path class="fil11" d="M5130.32 1496.47c67.09,118.81 -91.1,65.81 -144.62,47.33 -109.42,-37.79 -124.14,-78.26 -256.96,-86.97 -240.99,-15.78 -575.79,115.72 -447.57,-59.32l90.22 -29.81c87.26,-5.41 436.34,-58.13 483.93,5.16 80.17,2.43 235.09,46.6 275.01,123.61zm-291.95 -271.82l4.59 7.51 -561.8 165.34 -310.4 237.78c63.33,-10.16 239.48,-77.9 277.21,-24.48 -27.74,40.94 -275.65,57.44 -344.5,100.87l309.27 -66.66 -78.25 67.14c127.74,-52.16 695.66,-166.91 747.07,27.09 34.89,131.61 -202.04,235.81 -60.54,225.47 170.68,-12.46 209.28,164.86 79.82,232.51 144.33,253.97 230.43,239.06 189.41,575.36 48.61,-28.19 27.53,-80.41 53.15,-140.29l24.92 30.87 24.13 -22.75 -139.38 -349.09 39.79 -54.93 446.37 279.26c-126.84,-91.91 -445.17,-330.18 -487.26,-458.11 -83.25,-252.97 244.38,-345.13 337.95,-322.63 -37.27,-34.59 -150.77,-86.71 -155.88,-125.22 30.73,-5.31 109.49,44.01 145.63,57.92 148.88,44.08 350.27,171.82 491.35,74.45 148.16,-102.26 141.05,49.75 291.79,174.02 220.38,181.66 603.24,435.82 780.53,602.5 212.47,176.74 131.36,415.11 69.49,646l97.71 -516.38c-120.54,-138.28 -189.7,-244.93 -368.83,-314.81 -116.34,-45.38 -94.37,-87.43 -175.08,-157.47 -84.27,-73.13 -114.33,-75.33 -178.02,-178.3l-133.63 -152.8c-40.66,-4.1 -140.9,-12.71 -166.72,-36.46 -36.18,-33.29 -61.07,-86.83 -56.55,-134.3 -228.36,-177.93 -230.03,5.69 -295.87,13.26 -70.97,8.15 -340.31,-135.04 -207.99,-224.61 320.64,-217.05 566.48,-265.35 946.13,-158.08l332.92 119.8c68.9,6.15 60.66,14.41 109.74,46.22 42.23,27.38 63.73,8.88 92.98,63.61l136.6 179.33 45.58 51.88c-2.04,-309.54 46.81,-456.12 -221.41,-682.46 -90.28,-76.2 -563.42,-240.43 -680.16,-218.43 -295.56,55.7 -374.81,349.26 -592.37,458.84 -239.06,120.42 -599.26,-40.14 -859.48,-98.78z"/>
  <path class="fil12" d="M7117.87 5126.27l1.96 4.01 -2.94 47.86 -39.69 0.44 -1.96 32.19 -36.36 1.14c-40.85,39.68 -165.81,127.19 -218.93,127.68l-728.17 289.16c215.63,395.71 -1189.35,475.47 -937.89,778.29 389.15,468.66 1455.04,-176.99 1808.04,-437.77 -59.37,2.29 -48.43,13.54 -105.08,19.85l261.03 -862.86z"/>
  <path class="fil13" d="M8580.18 1530.33c99.01,-39.21 164.34,139.29 38.93,151.53 -117.29,11.45 -147.1,-108.7 -38.93,-151.53zm-1257.23 537.87l-2.34 20.98c13.32,52.38 2.72,93.94 40.09,136.47 131.64,-398.59 179.87,-131.56 506.95,-163.58 294.44,-28.83 280.36,212.37 395.95,379.99 149.25,216.39 782.05,-300.02 889.72,-458.3 -20.52,-38.98 -65.79,-154.8 -77.97,-197.91 -22.29,-78.87 15.81,-150.5 -69.09,-183.05 -172.92,-66.27 -318,33.51 -393.03,-151.44 -354.87,-9.55 -501.52,255.52 -910.09,125.3 -491.68,-156.71 -251.03,106.22 -380.19,491.55z"/>
  <path class="fil14" d="M41.4 3775.76c36.63,-21.51 22.14,177.05 28.54,202.06 17.23,67.19 52.2,11.15 42.74,74.71 -11.02,73.94 -7.02,98.96 -5.53,173.01l466.08 991.8c54.95,159.65 104.63,133.3 96.99,336.45l6.54 -67.81c1.49,-59.03 -0.29,-118.86 -12.46,-176.18 -20.91,-98.43 38.89,-91.22 94.86,-150.31l289.91 -286.11 175.98 -249.55 67.66 -58.68c30.2,-63.03 124.59,-98.8 139.38,-131.93 -347.93,151.56 -378.06,-94.06 -589.66,-250.6 -193.02,-142.8 -436.87,-128.34 -565.45,-366.79 -78.44,-145.45 -71.95,-459.44 -101.5,-632.63 -53.45,-313.12 -134.27,576.06 -134.08,592.57z"/>
  <path class="fil10" d="M7559.98 2897.31c27.01,73.76 165.62,-34.67 156.33,270.03 -11.49,377.01 147.44,241.1 195.83,399.72 145.09,475.66 -206.27,619.15 -308.09,941.79l216.97 -171.64c133.19,-135.61 325.65,-269.49 485.68,-372.73 93.99,-60.64 167.7,-77.1 208.09,-189.3 53.21,-147.85 137.85,-95.85 105.18,63.65l-3.11 26.69c415.34,-529.91 -523.14,-931.47 -526.77,-942.83 -55.08,15.94 -179.8,61.52 -125.57,-58.21 45.2,-18.48 77.93,-0.92 122.24,19.64l7.88 37.79 -501.78 -164.13 -7.86 32.54 -30.05 -96.21 5.01 203.2z"/>
  <path class="fil15" d="M7559.98 2897.31c-0.62,112.23 -8.72,191.52 -14.74,299.87 -6.84,123.49 13.42,159.02 -25.9,288.52 1.04,19.96 7.45,20.47 -8.97,12.07l-72.63 202.9c423.27,5.58 -17.59,787.44 -85.31,845.74 -73.66,63.41 -337.74,68.17 -491.08,183.56 -180.28,135.69 -237.66,188.56 -448.38,301.23l21.14 3.73 20.89 6.98c89.04,-60.22 313.4,-136.4 421.12,-152.15 60.51,-8.84 190.68,-36.9 240.42,-39 98.81,-4.14 53.11,125.54 45.14,188l-43.8 87.51 -261.03 862.86c28.38,-95.19 19.13,-32.89 92.34,-72.23 23.76,-12.77 79.39,-50.96 83.37,-74.06l571.49 -1333.99c101.82,-322.64 453.18,-466.13 308.09,-941.79 -48.39,-158.62 -207.32,-22.71 -195.83,-399.72 9.29,-304.7 -129.32,-196.28 -156.33,-270.03z"/>
  <path class="fil16" d="M2697.4 5469.01c44.53,-48.8 111.02,-68.86 176.56,-75.16l509.05 -6.84 17.41 -16.61 -316.31 -510.03c-158.78,-51.73 -289.47,-175.62 -433.55,-249.21 -118.1,706.88 -692.48,-201.27 -499.47,330.01 54.21,149.24 181.98,879.79 546.32,527.85z"/>
  <path class="fil7" d="M5528.3 2182.12l4.12 34.25c42.76,42.09 66.45,121.25 87.6,178.21l-23.57 9.87 33.86 96.44 -53.73 2.61 46.28 27.02 72.44 32.17c147.66,38.51 169.45,110.51 248.64,226.09 30.78,44.91 62.33,98.64 95.01,140.37 48.23,61.6 73.01,44.71 120.73,128.15 47.91,43.56 106.16,65.42 145.34,108.64 60.59,66.85 67.12,78.6 139.66,138.8 211.15,175.2 159.7,-91.82 152.6,-229.42 -41.42,-69.24 -40.52,-126.63 -75.1,-181.13 -114.62,-180.59 -75.82,-154.9 -173.92,-338.43 -42.91,-80.3 -65.57,-50.54 -89.8,-168.25 -33.55,-49.72 -112.55,-73.63 -170.78,-155.46l-28.97 -13.27c-59.23,-1.45 -71.38,-15.78 -113.72,-53.34 -55.94,-49.64 -42.51,-22.04 -100.49,-48.1 -16,-69.63 -4.23,-21.63 -41.65,-89.38 -26.66,-16.35 -16.09,-21.79 -44.52,-39.68 -29.35,-18.47 -24.91,-2.21 -53.06,-31.24 -54.01,-4.69 -59.5,-18.61 -118.84,-2.1 -66.75,68.15 -13.2,163.39 -58.13,227.18z"/>
  <path class="fil17" d="M7533.2 5314.92c40.9,-2.49 39.47,9.88 32.27,41.9 -35.61,0.19 -37.7,-6.67 -32.27,-41.9zm287.83 -977.71l-216.97 171.64 -312.5 1125.43c23.18,12.88 27.33,20.08 49.96,28.16 22.82,8.15 24.67,0.48 49,13.3 66.61,-54.43 86.44,-116.58 152.94,-180.39 167.2,-160.38 203.33,-348.56 258.17,-416.93 64.91,-80.93 75.06,-136.08 134.26,-212.71 -11.34,-84.16 100.95,-218.2 171.21,-256.75l9.46 -4.83 -10.32 -21.71c33.82,-41.91 99.78,-154.72 147.52,-162.03 15.83,-65.07 80.98,-69.27 110.65,-159.78 50.43,-64.61 88.81,-128.73 116.22,-205.92 28.82,-81.15 76.95,-61.23 80.6,-191.04 -83.32,41.04 -310.21,176.87 -372.86,230.89 -31.82,27.42 -36.78,48.68 -75.29,74.37 -69.89,46.58 -222.53,141.11 -292.03,168.29z"/>
  <path class="fil18" d="M2738.8 5468.61l-41.4 0.4 -79.07 108.28 41.18 -12.09c4.28,24.9 -89.94,210.23 -107.73,256.04 110.64,141.81 195.36,149.35 405.14,208.95 88.52,25.16 203.02,8.77 294.75,1.63 102.07,-7.95 199.08,2.71 301.46,-0.09 116.77,-29.82 233.31,-62.33 350.67,-90.34 122.72,-29.3 241.48,-36.89 363.81,-64.45 393.64,-88.67 -133.75,12.03 -179.06,-140.91l-134.8 -48.59c-46.86,0.24 -228.52,-17.22 -245.17,-14.14 -119.65,22.03 -37.49,50.82 -209.93,23.01 -305.53,-49.26 -239.15,80.16 -320.94,-187.65 -39.62,-12.15 -31.95,-17.35 -61.4,-29.69 -12.02,-5.04 -49.76,-15.73 -65.8,-20.38 -51.81,-15.06 -87.41,-12.9 -139.87,-17.24l13.07 29.92c-36.49,15.13 -173.45,44.95 -184.91,-2.66z"/>
  <path class="fil19" d="M5062.94 5744.46l28.4 -7.81 164.22 -65.05c32.12,-34.89 150.3,-93 198.84,-105.53l151.35 -84.02c44.14,-44.95 55.46,-28.38 91.9,-56.08 35.6,-27.06 21.14,-50.63 63.33,-73.67 36.04,-19.69 56.82,-12.39 90.74,-48.83 34.72,-37.31 19.24,-50.75 68.63,-92.36 17.81,-24.33 117.85,-172.4 124.01,-192.24 101.59,-204.59 138.67,-613.45 -170.06,-422.98 -108.25,66.79 -284.66,381.3 -373.38,503.55 -230.98,318.25 -1218.53,641.6 -437.98,645.01z"/>
  <path class="fil18" d="M6385.49 5414.58c0.11,-3.19 13.65,-13.7 20.26,0.48 8.34,17.91 -20.34,2.02 -20.26,-0.48zm59.82 -1106.7l-224.84 476.3c-8.97,127.32 -147.3,203.08 -173.74,320.41 -14.26,45.76 -15.6,48.86 -25.19,96.18 -10.58,52.19 -9.49,30.38 -42.18,69.23 -69.96,83.13 -29.62,39.02 -112.78,95.89 -236.73,415.17 848.31,-7.36 953.38,-26.29 25.47,-55.91 126.3,-109.51 182.28,-151.36 86.03,-64.31 90.55,-113.55 152.98,-193.86 -6.19,-108.71 -29.86,-113.69 -136.69,-96.46 -312.96,50.49 -310.32,99.07 -563.54,144l-20.89 -6.98c-34.83,44.07 -209.04,132.66 -258.2,97.13 2.64,-69.72 125.92,-125.76 183.41,-146.73l58.22 -68.36 -6.38 -27.2c-94.85,77.48 -273.15,132.36 -185.19,-34.6 56.39,-107.03 128.24,-188.95 185.41,-297.74 102.01,-194.09 58.26,-294.13 287.66,-677.74l46.63 -145.77 -300.36 573.96z"/>
  <path class="fil20" d="M702.3 6420.13l50.86 168.94c66.03,222.64 242.93,300.09 320.69,39.97 55.3,-184.96 18.75,-482.36 41.19,-693.37 22.63,-212.77 14.5,-587.08 91.71,-768.26 92.05,-216 217.11,-389 293.6,-626.6 -80.56,67.22 -585.6,819.91 -605.8,934.6 -81.4,461.98 -12.97,470.43 -192.25,944.73z"/>
  <path class="fil9" d="M4134.48 1712.17l-482.6 210.38 -11.51 4.82 -25.3 80.98c-31.25,91.01 -84.22,134.97 -3.24,224.34 32.94,-414.17 307.05,-86.42 319.99,-82.82 83.51,23.22 459.24,61.26 503.42,113.9l-14.33 -2.42 21.08 218.25c-11.41,-13.76 -4.04,-4.33 -8.55,-23.43 -151.02,-63.32 29.05,-192.08 129.44,-109.63l42.42 9.55c62,25.88 117.04,61.64 160.05,112.74l40.79 42.93 2.87 -39.54c31.16,-0.87 131.79,39.51 166.3,51.31 61.89,21.17 79.31,80.36 93.06,142.81l-5.25 61.4c38.93,-86.04 0.81,-167.94 -31.49,-245.27l-6.39 -0.68c-69.89,-16.26 -90.62,-38.13 -142.01,-52.83 -61.78,-17.67 -116.1,10.05 -160.35,-49.11 -56.96,-76.2 -116.85,-151.98 -154.23,-240.78 -64.21,-8.27 -97.07,-21.53 -159.32,-0.42 -50.61,17.16 -125.28,30.05 -168.44,-7.83 0.33,-50.88 94.86,-65.55 134.03,-82.18 83.64,-35.53 117.01,-31.29 207,-24.92 -105.53,-94.82 41.62,-207.89 125.6,-169.96 45.17,54.52 -0.63,97.91 35.5,159.81 52.28,30.79 105.32,-33.69 161.17,16.94 48.85,44.29 55.55,107.63 -16.22,136.05l12.87 30.68c129.46,-67.65 90.86,-244.97 -79.82,-232.51 -141.51,10.34 95.43,-93.86 60.54,-225.47 -51.42,-194 -619.33,-79.25 -747.07,-27.09z"/>
  <path class="fil21" d="M5406.83 3417.25l-14.01 40.47c0.87,160.41 -126.84,488.03 -315,421.55 -106.91,-37.78 -121.64,-41.81 -136.8,-126.7 -6.95,-38.89 -201.61,-28.4 -267.55,-45.49 -230.56,-27.9 -495.72,-69.42 -724.17,-75.16 -37.78,6.49 -319.65,14.94 -325.45,-1.25l646.06 452.3c184.55,-3.8 372.6,-9 556.69,-22.04 183.84,-13.03 358.67,-33.72 544.77,-25.99l-35.11 -9.24c-93.82,-29.66 -52.78,-93.15 -26.9,-175.12 31.78,-100.63 27.62,-103.81 86.49,-191.91 45.18,-67.6 17.72,-97.81 90.04,-187.9 64.83,-80.74 64.28,-107.59 80.74,-207.99 -52.38,41.56 -95.85,121.77 -159.81,154.47z"/>
  <path class="fil22" d="M5945.95 4096.47c-90.74,-0.95 -161.18,23.68 -246.93,13.61 -69.86,-8.2 -172.06,-7.07 -232.09,-25.53 -689.99,-46.61 -1332.47,106.87 -2031.78,-51.85 286.42,372.36 743.26,337.49 1195.2,373.8 340.54,27.35 349.61,1.15 600.3,-194.57 168.16,-131.27 497.01,-91.8 715.3,-115.47z"/>
  <path class="fil23" d="M7437.74 3700.66c-32.5,44.63 -50.77,98.68 -95.32,157.37 -43.81,57.73 -61.41,114.13 -95.99,167.48l-38.85 62.12 -26.91 41.5 -12.66 9.16 -87.33 105.05c-12.28,72.08 -166.87,263.13 -230.86,303.79 -22.01,40.51 -33.01,44.55 -75.88,58.53l-10.3 0.8c-59.61,88.75 -255.71,243.39 -346.09,310.52l-58.22 68.36c-28.06,35.11 -83.58,65.14 -90.22,80.53 36.18,24.83 106.2,-14.22 143.87,-34.65 210.72,-112.67 268.1,-165.54 448.38,-301.23 153.34,-115.39 417.42,-120.15 491.08,-183.56 67.72,-58.3 508.58,-840.16 85.31,-845.74z"/>
  <path class="fil2" d="M3600.45 3096.16c-0.03,-75.14 -5.79,-140.76 94.77,-110.73 67.34,20.12 82.44,91.26 51.69,148.2 -58.64,26.82 -90.03,-14.87 -146.47,-37.47zm-13.07 -10.31l-2.26 10.67 15.33 -0.35c50.91,62.55 99.43,81.77 180.22,85.85 174.3,8.83 56.49,-85.03 -55.46,-277.86 -27.49,-47.38 141.56,3.59 156.27,8.11l52.88 6.46c-42.76,-23.95 -254.18,-75.23 -148.97,-122.2 127.25,-56.82 91.22,-27.48 195.71,-125.07 35.9,-33.53 187,-159.94 198.5,-40.51 3.49,36.34 -82.75,217.95 -101.59,276.26 71.81,-60.32 124.97,-265.4 171.95,-289.71 53.81,7.22 47.97,30.95 72.76,79.68l56.59 133.68 7.5 3.29 -2.57 -54.49 43.85 9.15c-16.93,-47.38 -39.76,-101.36 -11.25,-148.35 77.9,10.64 7.21,160.89 233.31,147.48l151.49 4.28 28.3 -32.17c-30.07,-44.28 -27.92,-24.01 -69.95,-44.82 -107.59,-82.49 -322.17,-152.51 -399.99,-256.56 -118.72,-158.71 -176.27,-213.99 -406.45,-133.88 -238.8,83.1 -405.49,496.38 -366.16,761.09z"/>
  <path class="fil24" d="M6017.77 4061.47l26.29 15.02c-30.53,19.28 -61.82,18.37 -98.11,19.98 -218.29,23.67 -547.14,-15.8 -715.3,115.47 -250.69,195.72 -259.76,221.92 -600.3,194.57 -451.94,-36.31 -908.78,-1.44 -1195.2,-373.8l-170.81 -41.48c390.02,399.38 959.2,621.07 1518.45,582.55 130.22,-8.96 513.39,-216.49 736.29,-280.14 115.2,-32.91 588.37,-126.57 498.7,-232.15z"/>
  <path class="fil25" d="M1295.3 4603.4l-34.7 40.74c-14.59,37.08 -130.25,256.48 -156.16,282.62 -94.22,95.06 -147.67,131.61 -232.42,247.46 -110.18,150.59 -69.38,199.17 -134.03,345.6 -56.24,127.35 19.08,128.11 -94.15,273.87 -8.92,127.83 -38.49,193.16 -22.32,334.37 12.42,108.45 42.15,191.48 80.78,292.07 179.28,-474.29 110.85,-482.74 192.25,-944.73 20.2,-114.7 525.24,-867.39 605.8,-934.6l72.58 -93.86 -1.71 0.3c-168.43,34.61 -83.53,35.77 -141,66.45 -42.99,22.95 -40.98,-2.72 -72.57,45.56 -26.06,39.84 -9.01,31.89 -62.36,44.15z"/>
  <path class="fil26" d="M2409.57 4273.09l74.45 97 1499.53 914.59 227.99 145.48 21.09 2.26c68.6,12.83 111.55,63.73 162.18,53.04 6.53,-39.93 -6.31,-32.5 -18.75,-77.69l0.68 -6.59c-60.18,-25.9 -59.87,-11.61 -93.3,-71.2l-973.92 -634.9 -899.95 -421.98z"/>
  <path class="fil27" d="M5637 3137.56l-23.72 57.93c26.94,241.44 93.18,324.66 46.52,583.6 -49.86,276.74 152.31,326.78 331.95,221.55 146.39,-85.74 -140.67,-903.81 -354.75,-863.09z"/>
  <path class="fil28" d="M3611.83 2232.69l-7.98 8.26c59.02,51.99 15.59,118.53 9.79,196.15 -20.51,68.91 -58.92,167.43 -61.28,235.14 -3.93,112.38 -9.79,175.72 0.52,290.86 -10.07,37.74 -2.69,70 12.36,105.7 27.78,9.94 12.04,-15.38 22.15,17.05 -39.33,-264.71 127.36,-677.99 366.16,-761.09 230.18,-80.11 287.73,-24.83 406.45,133.88 77.82,104.05 292.4,174.07 399.99,256.56 -45.72,-54.88 -69.37,-97.8 -133.69,-117.73 -47.13,-14.61 -135.08,-59.46 -162.84,-97.21l-21.48 -20.65 -21.08 -218.25 14.33 2.42c-44.18,-52.64 -419.9,-90.69 -503.42,-113.9 -12.94,-3.61 -287.05,-331.36 -319.99,82.82z"/>
  <path class="fil0" d="M6359.55 2485.75l159.37 303.24c96.04,178.28 164.18,446.29 118.34,646.37 -10.44,802.76 211.58,-156.97 207.17,-335.18 -10.53,-425.18 -415.51,-761.85 -484.88,-614.43z"/>
  <path class="fil2" d="M8403.48 4283.58c-48.65,59.46 -65.96,118.91 -149.73,136.81 -11.18,38.07 -105.44,151.07 -137.19,183.74l-9.46 4.83c-4.25,11.92 -165.29,251.42 -171.21,256.75l-12.94 87.79 1104.72 -535.36 -344.49 129.46 -23.96 -13.18 -69.12 -255.51 -1.63 -13.82 -184.98 18.48z"/>
  <path class="fil29" d="M5047.69 3323.66l-37.94 0.2c-156.99,121.9 -506.59,126.14 -696.24,117.73 52.24,73.58 207.98,66.02 224.86,107.25 -61.55,27.73 -138.71,-25.49 -199.65,-42.65 -33.25,72.28 -59.58,35.02 -136.07,51.69 -6.82,64.57 34.79,9.02 27.53,69.55 436.91,41.59 698,172.02 1062.75,-156.32l-38.52 -14.61c-19.71,-107.58 80.37,-366.94 16.48,-473.05 0.7,69.75 -43.07,490.51 -75.4,519.09 -107.54,24.85 -132.74,-98.81 -147.79,-178.88z"/>
  <path class="fil14" d="M4541.29 3092.34c-69.77,-0.71 -19.62,-33.13 -118.66,-2.23l-55.58 9.53 -60.97 32.6c-25.15,33.62 -41.93,34.51 -77.74,54.38 -53.96,64.47 -129.44,56.02 -184.38,105.56l31.29 29.69 111.02 59.73 41.51 20.56 9.18 -26.77c44.96,-0.27 97.19,-4.68 126.58,25.78l-22.94 23.18 204.61 -13.95c47.22,-25.13 228.7,-48.97 289.45,-45.46l96.81 -27.5 27.23 -86.12c-20.95,28.77 -23.94,59.4 -52.73,64.74 -8.45,-44.34 72.57,-172.72 83.49,-235.46l-90.02 -76.3 -25.59 0.09 -137.64 236.89 -30.5 17.08 -164.42 -166.01z"/>
  <path class="fil30" d="M2933.73 1761.87l-315.33 217.85 34.91 3.38c-10.35,62.76 -109.81,63.56 -112.76,260.66 -1.92,127.7 -36.94,234.96 -30.68,357.39l614.42 -824 -31.1 -34.25 -159.46 18.98z"/>
  <path class="fil31" d="M3678.17 3914.96c-27.2,-102.96 95.15,-101.74 137.91,-59.74 27.18,26.68 21.9,61.14 35.87,93.49 19.56,45.31 36.44,30.95 67.75,57.03 74.68,62.21 -116.52,54.98 -138.39,50.47 -64.36,-13.28 -87.66,-82.69 -103.14,-141.25zm-337.88 -548.43l132.61 228.36c56.39,47.82 106.44,171.11 79.98,244.97 -43.29,7.6 -27.1,7.29 -70.18,-9.1 25.04,28.98 66.85,47.59 71.68,86.33 -24.2,1.21 -135.74,-70.81 -170.87,-87.78l314.69 235.62c92.03,4.66 180.87,14.92 272.22,20.03 107.3,6 194.09,-0.67 299.49,-2.01l-646.06 -452.3 100.5 -33.32c-11.87,-58.3 -92.79,-222.25 -128.84,-270.73 -38.97,-52.4 -79.36,-259.2 -83.34,-329.15l-3.68 -44.27 -25.38 -93.19 108.28 738.43 -42.91 22.63 -208.21 -254.52z"/>
  <path class="fil32" d="M2873.96 5393.85c113.19,-11.58 334.94,-1.13 444.56,30.72 108.89,31.63 70.61,59.83 136.42,99.71 45.24,27.42 141.73,50.97 194.19,61.63l-78.64 -72.76 0.48 -24.8 640.57 -58.18 -227.99 -145.48 -259.53 -91.88c-137.62,33.75 -84.44,320.27 -337.92,67.24 -104.65,-104.46 -162.91,-274.45 -250.87,-381.83l-51.12 -17.85 316.31 510.03 -17.41 16.61 -509.05 6.84z"/>
  <path class="fil33" d="M5866.58 5365.88c-42.9,31.59 -23.58,28.16 -79.22,28.62 -68.86,38.37 -97.19,64.54 -181.6,87.56l-151.35 84.02c24.05,85.42 -140.61,119.73 -198.84,105.53l-164.22 65.05c38.71,21.86 16.19,-2.52 35.79,39.9l215.43 -39.33 181.25 -41.18 567.98 -67.29 728.17 -289.16c-105.07,18.93 -1190.11,441.46 -953.38,26.29z"/>
  <path class="fil34" d="M3340.79 3323.27c-9.97,-92.76 -72.04,-142.61 -40.21,-216.39 43.74,-37.11 91.26,-45.47 140.63,-13.12 46.3,73.9 23.27,372.23 -100.43,229.51zm-72.85 -143.66l72.85 143.66 -0.51 43.26 208.21 254.52 42.91 -22.63 -108.28 -738.43 3.26 -16.24c-66.67,-204.92 -63.83,-147.73 -194.93,-47 -109.06,83.79 -48.16,268.89 -23.51,382.87z"/>
  <path class="fil35" d="M7328.53 2245.98c-6.16,-56.6 -71.41,-145.02 -30.48,-192.44l22.56 35.63 2.34 -20.98 -43.47 -62.17 -8.01 29.95c-67.27,-25.3 -115.55,-255.4 -125.26,-322.37l-136.6 -179.33c-70.17,-22.73 -149.55,-59.92 -202.71,-109.83l-332.92 -119.8 -344.64 -37.2c-28.86,194.35 506.88,142.2 694.16,271.36 229.36,158.16 364.58,475.06 505.04,707.18z"/>
  <path class="fil8" d="M1954.34 3154.84c3.33,73.21 19.18,286.06 42.98,346.7l421.28 -800.27 -16.71 -15.04 104.91 7.55 -30.44 -192.69 -522.01 653.75z"/>
  <path class="fil36" d="M5539.22 2515.66l83.64 14.85 -46.28 -27.02 -9.32 -14.71c-2.28,-3.06 -266.72,-229.59 -282.74,-240.88 -65.34,-46.11 -94.56,-39.64 -133.9,-123.58 -119.62,-255.21 9.01,-238.8 108.3,-169.07l30.96 34.63 77.63 60.9 -24.35 -48.37c80.35,-60.84 145.76,124.4 175.54,157.55 -23.89,-77.86 -14.98,-126.59 -18.79,-205.3 -4.85,-99.78 -34.16,-102.5 -48.23,-172.09l-61.76 -47.65c-93.57,-22.51 -421.19,69.66 -337.95,322.63 42.09,127.93 360.42,366.2 487.26,458.11z"/>
  <path class="fil8" d="M7032.56 5842.84c90.46,3.48 166.01,-21.08 245.97,-61.6 -80.89,-8.82 -69.7,-71.85 -47.09,-141.2l60.11 -5.76 312.5 -1125.43 -571.49 1333.99z"/>
  <path class="fil37" d="M4854.94 2727.37l-16.48 60.49c26,16.35 18.23,-1.53 25.62,39.33l-52.82 11.65 -62.03 49.94c-10.6,25.44 -21.47,33.29 -26.39,45.95 -10.05,25.81 8.91,9.59 -15.54,49.48l-45.57 1.47 0.25 -24.1 -13.17 8.6c-27.14,45.08 -29.87,25.43 -56.54,55.79 -33.45,38.08 3.93,31.12 -50.97,66.37l164.42 166.01 30.5 -17.08 137.64 -236.89 25.59 -0.09 90.02 76.3c36.06,-43.08 28.61,-51.33 47.91,-100.55l18.22 -166.06 -33.02 -23.25 -69.2 -67.55 -50.83 -12.11 -11.49 36.06 -36.11 -19.76z"/>
  <path class="fil38" d="M1796.5 1036.97l-9.54 7.34c-12.7,27.23 -98.59,119.87 -125,134.13 -13.79,33.17 -46.04,60.69 -76.14,80.25l6.88 23.6 296.18 -264c35.88,-62.42 62,-73.54 119.51,-111l230.35 -150.48c319.4,-137.91 413.41,-122.37 740.82,-180.17 146.33,-25.83 296.69,-14.78 444.84,-19.56 206.88,-6.68 180.68,-23.41 338.09,-126.69 -189.11,37.17 -381.32,53.39 -572.29,76.95 -487.01,60.08 -514.66,2.49 -1031.07,245.36 -120.11,56.5 -245.14,197.64 -362.63,284.28z"/>
  <path class="fil39" d="M4650.93 43.55c334.11,-35.15 368.32,-19.86 638.34,140.41l38.59 59.1 206.12 1.95c184.53,-85.93 274.5,-61.17 439.15,39.17 66.69,40.65 143.82,58.97 217.3,83.11 72.73,23.9 135.43,61.94 209.77,88.17 239.89,84.65 541.93,288 717.57,472.32 -3.76,-19.56 -31.7,-27.45 -44.94,-79.69 -36.3,-63.11 -273.34,-220.76 -348.11,-280.75 -50.19,-39.64 -214.38,-130.35 -272.87,-149.06 -107.28,-34.31 -228.38,-56.63 -318.29,-129.88l-3.29 10.65c-165.75,-2.29 -163.56,-92.23 -285.95,-129.21 -166.03,-50.16 -194.97,3.85 -342.74,17.46 -35.74,20.6 -52.52,35.15 -89.83,3.63 -65.79,-18.53 -188.23,-88.13 -232.56,-137.66 -181.23,-66.85 -284.23,-53.36 -476.76,-49.51l-51.52 39.8z"/>
  <path class="fil30" d="M3430.38 5039.67c31.92,-14.73 26.99,-19.41 55.5,11.74 -30.19,14.54 -27.83,7.88 -55.5,-11.74zm-634.84 -377.7l-5.31 -28.47 21.72 12.61 -16.41 15.85zm-311.52 -291.88c56.63,127.94 195.48,223.06 311.52,291.88 103.32,77.59 197.67,128.34 320.41,168.67 59.61,19.6 285.58,110.31 264.13,185.18 37.45,57.24 44.55,48.59 105.64,71.05 55.44,20.37 83.65,42.45 127.74,59.41l22.47 -31.65c32.21,12.77 133.92,59.39 145.25,82.1l-57.16 -3.92 259.53 91.88 -1499.53 -914.59z"/>
  <path class="fil40" d="M2155.14 2587.7l26.35 9.84c-20.86,69.18 -103.94,194.04 -128.8,258.66 -86.49,224.84 -33.78,56.25 -98.35,298.64l522.01 -653.75 25.99 -164.92 -347.2 251.54z"/>
  <path class="fil11" d="M4673.48 3707.07c65.94,17.09 260.61,6.6 267.55,45.49 15.16,84.89 29.9,88.93 136.8,126.7 188.15,66.48 315.87,-261.14 315,-421.55 -105.05,47.25 -211.87,125.63 -313.59,183.73 -155.34,88.71 -238.92,67.32 -405.76,65.62z"/>
  <path class="fil36" d="M6031.7 1674.07l-286.53 -277.81 36.82 -64.65 347.35 -64.17 344.64 37.2c-379.65,-107.27 -625.49,-58.97 -946.13,158.08 -132.32,89.57 137.02,232.76 207.99,224.61 65.84,-7.57 67.51,-191.19 295.87,-13.26z"/>
  <path class="fil20" d="M6637.27 3435.36c45.84,-200.07 -22.3,-468.08 -118.34,-646.37 8.59,105.05 76.98,159.56 78.36,286.32 7.1,137.6 58.55,404.62 -152.6,229.42 -72.54,-60.2 -79.07,-71.95 -139.66,-138.8 -39.18,-43.22 -97.43,-65.08 -145.34,-108.64 -128.5,-66.72 -160.23,-133.02 -238.06,-247.94 -90.7,-133.92 -110.42,-143.52 -226.32,-246.67l-72.44 -32.17 -83.64 -14.85c124.81,96.51 206.76,100.71 308.53,238.83 84.35,114.5 132.88,218.88 244.05,314.11 113.4,97.13 179.7,167.96 272.7,284.27 80.68,100.9 166.99,215.63 272.77,82.49z"/>
  <path class="fil41" d="M3724.02 5192.81c-31.35,-25.02 -70.49,-42.96 -110.56,-46.52 -44.09,-16.97 -72.3,-39.04 -127.74,-59.41 -61.09,-22.46 -68.19,-13.82 -105.64,-71.05 -61.82,-64.32 -159.85,-112.67 -244.84,-137.61 87.95,107.39 146.21,277.37 250.87,381.83 253.49,253.03 200.3,-33.49 337.92,-67.24z"/>
  <path class="fil26" d="M4116.62 235.86c-108.8,60.56 -234.2,176.56 -354.13,194.52 -157.41,103.29 -131.21,120.01 -338.09,126.69 -148.15,4.78 -298.51,-6.28 -444.84,19.56 -327.41,57.8 -421.42,42.26 -740.82,180.17 188.17,-53.11 374.59,-108.25 570.42,-122.19 217.66,-15.5 458.46,8.72 663.77,-11.72 147.04,-14.64 273.79,-130.03 409.69,-201.7 142.29,-75.04 300.21,-175.41 435.52,-263.86 -51.66,0.57 -151.53,52.6 -201.53,78.53z"/>
  <path class="fil34" d="M5366.61 3419.91l41.69 -28.64c3.83,-14.71 -10.78,-15.86 8.86,-11.96l37.31 -83.22c19.45,-51.19 37.16,-117.36 80.2,-150.62l-0.81 -48.59c27.28,-353.12 -205.06,-400.33 -201.97,-234.24 1.82,98.25 32.15,183.59 30.29,302.52 -1.27,81.24 -29.35,181.75 4.44,254.75z"/>
  <path class="fil42" d="M8552.51 1303.69c-43.81,-111.8 -110.16,-93.82 -170.52,-143.21 -190.62,-20.63 -347.68,-10.35 -533.1,-19.36 -132.16,-6.41 -111.65,-38.68 -205.85,-70.47 -55,-18.55 -152.68,-27.14 -217.69,-41.99 -106.66,2.72 -73.94,-5.86 -163.25,-31.06 -31.59,-8.92 -59.89,-6.4 -83.58,-13.46 -28.79,-8.58 -30.96,-22.63 -63.86,-40.5 49.82,239.37 52.67,151.34 236.57,151.94 169.5,0.56 237.53,52.93 380.37,77.55 271.26,46.73 591.12,-48.83 820.92,130.55z"/>
  <path class="fil43" d="M3934.36 2918.73l25.85 13.02 29.68 7.03 36.39 6.48c37.82,-13.89 39.38,-0.52 51.73,-38.06 18.84,-58.31 105.08,-239.92 101.59,-276.26 -11.5,-119.43 -162.6,6.98 -198.5,40.51 -104.49,97.59 -68.46,68.25 -195.71,125.07 -105.21,46.98 106.21,98.25 148.97,122.2z"/>
  <path class="fil44" d="M3028.01 3524.78l117.01 128.94 75.18 51.99c49.13,6.58 67.42,13.66 108.51,-16.85 3.33,-63.19 -16.59,-45.12 -32.81,-99.73l7.14 -4.66c-54.77,-30.63 -98.3,-91.13 -109.45,-152.45l-59.73 -114.79c-24.71,-31.59 -28.16,-39.71 -33.84,-79.64l-43.02 -32 -30.5 0.75c-20.52,85.18 -37.03,241.45 1.51,318.44z"/>
  <path class="fil26" d="M3177.71 5508.66c81.79,267.81 15.41,138.38 320.94,187.65 172.44,27.81 90.28,-0.99 209.93,-23.01 16.65,-3.07 198.31,14.38 245.17,14.14l32.79 -5c-33.96,-28.57 -116.38,-42.81 -161.99,-37.55 -102.55,-11.44 -294.41,-11.94 -379.89,-69.15 -113.47,-75.96 -155.5,-119.42 -287.01,-167.82 26.76,48.8 21.27,43.58 20.05,100.74z"/>
  <path class="fil45" d="M1049.06 4873.37c-34.68,44 -67.48,104.31 -101.34,142.63 -32.55,36.84 -85.26,88.48 -121.26,125.44 -97.73,100.29 -108.71,212.43 -149.71,344.54l-6.54 67.81 -22.01 66.52 7.81 21.36c10.46,69.22 -11.12,84.98 -12.17,152.02 113.23,-145.76 37.92,-146.52 94.15,-273.87 64.65,-146.43 23.85,-195.01 134.03,-345.6 84.75,-115.85 138.2,-152.4 232.42,-247.46 25.91,-26.14 141.57,-245.54 156.16,-282.62 -56.1,2.83 -23.62,7.73 -35.55,-20.32l-175.98 249.55z"/>
  <path class="fil46" d="M5567.25 2488.78c-14.31,-67.39 -42.69,-99.87 -61.2,-160.32 -71.63,-67.6 -66.14,-95.81 -116.22,-165.7 -24.51,-34.22 -43.28,-25.57 -68.63,-71.48 -13.88,-25.15 -35.79,-56.48 -45.55,-77.83l-126.33 -79.25c44.81,-28.92 66.27,2.49 109.57,21.04 -99.29,-69.72 -227.92,-86.13 -108.3,169.07 39.35,83.94 68.56,77.47 133.9,123.58 16.02,11.3 280.46,237.82 282.74,240.88z"/>
  <path class="fil17" d="M6411.16 4889.77l-1.87 -7.16 -42.09 -15.62c-12.98,-79.58 12.94,-55.93 35.6,-113.46 27.4,-69.55 13.11,-37.8 55.6,-93.48 -28.95,-150.4 211.76,-583.89 240.63,-780.36 -229.4,383.61 -185.65,483.65 -287.66,677.74 -57.17,108.79 -129.02,190.71 -185.41,297.74 -87.95,166.96 90.34,112.08 185.19,34.6z"/>
  <path class="fil47" d="M2819.88 3770.03c38.7,12.99 31.08,6.63 53.55,39.6 53.36,21.82 124.59,69.65 183.83,97.44 90.28,42.37 108.8,52.86 207.08,84.15l170.81 41.48c699.31,158.71 1341.79,5.24 2031.78,51.85l242.83 0.53c-49.38,-34.92 -196.84,-13.6 -281.47,-55.7l-56.91 5.55c-186.1,-7.73 -360.93,12.96 -544.77,25.99 -184.09,13.04 -372.14,18.24 -556.69,22.04 -105.4,1.34 -192.19,8.01 -299.49,2.01 -91.36,-5.11 -180.2,-15.37 -272.22,-20.03 -98.3,-9.32 -239.64,-67.12 -308.41,-68.09 -80.32,-27.07 -239.7,-51.44 -293.59,-106.36l-52.57 -21.32c-41.56,-21.75 -74.38,-27.52 -118.06,-55.35 -32.93,-21 -58.56,-43.76 -96.2,-64.67l-9.5 20.89z"/>
  <path class="fil48" d="M4281.17 1397.51c-128.22,175.05 206.59,43.55 447.57,59.32 132.83,8.7 147.54,49.18 256.96,86.97 53.52,18.48 211.71,71.48 144.62,-47.33l-9.97 10.35c-93.68,-56.08 -263.27,-107.97 -373.74,-115.63 -62.31,0.15 -124.21,-2.71 -186.8,-2.37 -61.49,0.34 -143.8,25.14 -188.43,-21.12l-90.22 29.81z"/>
  <path class="fil16" d="M3235.23 3146.82l32.72 32.79c-24.66,-113.98 -85.55,-299.08 23.51,-382.87 131.11,-100.73 128.26,-157.92 194.93,47 -2.9,-57.22 -8.48,-114.27 -6.5,-171.63 1.87,-54.6 14.14,-98.24 11.68,-153.5 -36.21,-83.89 -88.74,-14.94 -135.38,32.25 -31.07,31.44 -101.25,108.26 -123.12,143.62 -72.11,116.56 -46.76,330.9 2.18,452.34z"/>
  <path class="fil49" d="M3145.02 3653.73l-117.01 -128.94c-62.93,-47.2 -66.14,-138.28 -90.81,-216.57 -41.36,-131.25 41.75,-135.18 81.35,-192.73l-35.85 -293.16c-101.29,-57.91 -95.85,40.3 -104.86,133.37 -5.93,61.27 -30.52,259.49 -18.19,306.85 7.02,26.96 90.93,203.94 107.69,230.4 34.69,54.73 126.1,114.14 177.69,160.79z"/>
  <path class="fil16" d="M5341.7 2618.8c-6.01,64.62 -39.9,131.54 -32.13,194.95 -6.26,112.59 30.45,195.81 27.88,308.2 -0.97,42.46 -34.49,293.26 -32.03,300.32l56.31 0.01 4.88 -2.37c-33.79,-73 -5.71,-173.52 -4.44,-254.75 1.86,-118.94 -28.47,-204.27 -30.29,-302.52 -3.09,-166.09 229.25,-118.87 201.97,234.24 29.06,-26.77 28.05,-22.85 32.77,-63.31l-3.86 -164.32c-3.93,-71.73 -8.51,-139.8 -63.88,-193.35 -18.02,-17.41 -109.79,-94.2 -127.94,-98.19l-29.24 41.08z"/>
  <path class="fil33" d="M3553.14 6031.74c64.24,-6.11 60.01,-19.6 106.85,18.9 140.34,-69.27 498.75,-116.37 663.27,-138.95 47.76,-34.87 277.28,-68.58 348.4,-81.34l-37.59 -16.37c3.93,-25.09 49.87,-19.94 -31.97,-24.33 -60.22,-3.24 -121.35,-7.06 -181.55,-9.24 -114.74,-4.12 -224.03,0.68 -331.99,-44.38 45.31,152.94 572.7,52.24 179.06,140.91 -122.33,27.55 -241.09,35.15 -363.81,64.45 -117.37,28.01 -233.9,60.52 -350.67,90.34z"/>
  <path class="fil50" d="M3043.65 3869.17l22.91 -34.1c28.12,40.83 23.89,44.6 -22.91,34.1zm-223.77 -99.14l9.5 -20.89c37.64,20.91 63.27,43.67 96.2,64.67 43.69,27.83 76.5,33.6 118.06,55.35l52.57 21.32 6.09 -19.42 54.25 -0.15c-34.88,-30.2 -116.71,-71.44 -105.22,-124.73 -36.68,-62.71 -147.28,-98.28 -196.83,-161.62l-61.4 -67.55 -15.74 0c-101.62,68.9 -51.43,202.49 42.52,253.02z"/>
  <path class="fil37" d="M5167.61 3143.77c-18.07,61.18 -15.95,70.25 -62.55,109.5l-57.36 70.39c15.06,80.07 40.26,203.73 147.79,178.88 32.34,-28.58 76.1,-449.34 75.4,-519.09l-4.48 -45.15 -98.81 205.47z"/>
  <path class="fil51" d="M1602.59 7482.4c-78.44,-44.42 -156.23,17.05 -241.25,-16.59 -41.32,-16.35 -151.19,-86.38 -176.36,-119.82l-187.56 -180.56 -26.81 -31.33c-42.85,-35.35 -123.21,-179.75 -146.09,-233.8 -34.41,-81.3 -55.62,-222.39 -71.37,-311.24 -64.52,-78.44 -112.14,-249.42 -136.35,-349.85 -42.8,-177.55 -12.27,-278.51 0.85,-449.68 -55.16,237.71 -49.57,385.38 23.68,618.28 137.23,436.3 149.62,652.11 460.65,911.91 180.11,150.44 258.36,186.62 500.59,162.69z"/>
  <path class="fil52" d="M5090.24 2772.6l-28.96 199.79c-15.38,102.3 -84.46,190.97 -102.58,278.93l-27.23 86.12c141.99,-46.37 227.71,-298.47 238.22,-437.2 9.4,-105.21 9.08,-132.04 -1.38,-237.06l-24.92 -30.87c-25.62,59.88 -4.54,112.1 -53.15,140.29z"/>
  <path class="fil53" d="M7328.53 2245.98c31.64,131.87 82.4,106.29 134.03,201.21 31.06,57.12 55.05,212.49 53.19,277.5 -3.85,134.62 -24.34,47.65 -15.28,304.41 3.06,86.85 3.77,215.59 -3.52,301.35 40.03,81.43 -10.89,107.5 22.39,155.25 39.32,-129.5 19.05,-165.03 25.9,-288.52 6.02,-108.35 14.12,-187.63 14.74,-299.87l-5.01 -203.2c-22.42,-68.84 -24.37,-137.94 -49.62,-213.65 -27.02,-81.06 -82.59,-105.58 -100.96,-160.43 -37.4,-32.17 -41.61,-45.63 -43.69,-94.39 -37.37,-42.53 -26.77,-84.09 -40.09,-136.47l-22.56 -35.63c-40.93,47.42 24.32,135.84 30.48,192.44z"/>
  <path class="fil0" d="M3152.34 2634.61c-10.01,112.79 -59.4,81.96 -32.25,211.19 13.01,61.93 37.78,167.38 68.6,220.77 -33.48,-165.92 -32.03,-324.74 25.2,-486.2 28.71,-80.96 76.63,-84.58 141.34,-127.5 64.95,-43.09 98.14,-98.4 172.93,-38.59l10.41 -8.12 6.84 -32.24c18.34,-62.92 -2.69,-71.89 -29.96,-123.79 -67.86,-42.47 -142.94,119.63 -188.72,152.79 -47.53,34.42 -72.52,28.93 -117.91,85.56 -30.5,38.06 -36.8,97 -56.49,146.12z"/>
  <path class="fil54" d="M5566.65 3262.77c-16.46,100.4 -15.92,127.25 -80.74,207.99 -72.32,90.09 -44.86,120.3 -90.04,187.9 -58.87,88.11 -54.71,91.28 -86.49,191.91 -25.88,81.97 -66.93,145.47 26.9,175.12 1.29,-185.21 93.41,-208.09 146.88,-369.68 27.76,-83.88 63.54,-73.3 84.32,-184.85 17.32,-92.96 12.34,-140.48 15.43,-230.52l-16.27 22.13z"/>
  <path class="fil55" d="M7110.53 2648.21c-32.92,-164.44 -38.68,-121.24 -105.78,-250.4 -52.67,-101.38 -102.79,-36.68 -209.56,-86.42 -157.38,-73.35 -229.84,-265.8 -406.59,-313.76 63.69,102.97 93.75,105.17 178.02,178.3 80.72,70.04 58.74,112.09 175.08,157.47 179.13,69.87 248.29,176.53 368.83,314.81z"/>
  <path class="fil56" d="M7821.03 4337.21c69.51,-27.18 222.15,-121.71 292.03,-168.29 38.51,-25.68 43.47,-46.95 75.29,-74.37 62.65,-54.02 289.54,-189.85 372.86,-230.89 29.39,-19.31 29.91,-31.88 58.77,-24.83 32.67,-159.5 -51.97,-211.5 -105.18,-63.65 -40.4,112.21 -114.1,128.67 -208.09,189.3 -160.03,103.24 -352.48,237.11 -485.68,372.73z"/>
  <path class="fil0" d="M4581.92 2023.71c14.85,-3.62 11.22,-6.62 11.22,8.55l87.51 20.48 64.41 27.23 62.94 28.83 16.16 -1.3 63.81 59.06c71.77,-28.43 65.07,-91.76 16.22,-136.05 -55.84,-50.63 -108.89,13.85 -161.17,-16.94 -36.13,-61.9 9.67,-105.3 -35.5,-159.81 -83.98,-37.93 -231.13,75.14 -125.6,169.96z"/>
  <path class="fil20" d="M3902.67 3491.66c4.49,30.55 29.11,83.07 6.59,105.1 98.67,-6.05 222.13,16.73 320.92,30.68 7.26,-60.52 -34.35,-4.97 -27.53,-69.55 76.49,-16.67 102.82,20.58 136.07,-51.69 -47.8,-41.05 -129.93,-53.11 -166.52,-105.98l-93.41 -50.33 -32.55 2.97 107.27 89.56c-11.58,18.41 -80.96,76.76 -102.96,82.18 -30.84,7.62 -102.4,-25.32 -147.88,-32.94z"/>
  <path class="fil57" d="M2650.55 4611.15c144.09,73.59 274.78,197.48 433.55,249.21l51.12 17.85c84.99,24.94 183.03,73.29 244.84,137.61 21.46,-74.87 -204.51,-165.58 -264.13,-185.18 -122.74,-40.33 -217.09,-91.08 -320.41,-168.67 -116.04,-68.82 -254.89,-163.94 -311.52,-291.88l-74.45 -97 -55.07 -51.83 -29.28 -29.33c-95.29,-149 -72.04,-167.56 -67.81,-333.01 1.53,-60.27 -57.69,116.08 -7.14,244.02 40.65,102.86 312.56,421.62 400.28,508.21z"/>
  <path class="fil36" d="M4568.65 2139.06c151.38,33.6 94.22,137.34 230.95,186.76 61.59,22.27 95.39,-7.36 137.98,43.17 30.48,36.16 58.4,75.82 87.66,112.8l6.39 0.68c-70.99,-134.83 -129.36,-246.75 -244.81,-350.81l-9.06 1.45 -40.7 -12.7 -98.97 -37.32 -17.86 -7.45c-61.27,-1.97 -51.12,10.18 -51.58,63.42z"/>
  <path class="fil39" d="M7425.35 1028.66c65.02,14.85 162.7,23.44 217.69,41.99 94.2,31.79 73.69,64.05 205.85,70.47 185.42,9.01 342.48,-1.28 533.1,19.36l23.08 -11.27 2.33 -19.32c-40.7,-4.88 -72.77,-4.63 -101.71,-32.25 -151.11,9.22 -280.71,4.62 -429.85,-14.22 -142.46,-17.99 -253.6,-64.23 -388.2,-81.21l-155.16 -22.96c46.86,25.61 51.69,8.81 92.86,49.42z"/>
  <path class="fil23" d="M3188.68 3066.57c1.43,42.18 13.26,56.36 46.54,80.25 -48.94,-121.44 -74.29,-335.78 -2.18,-452.34 21.87,-35.36 92.05,-112.18 123.12,-143.62 46.65,-47.19 99.18,-116.14 135.38,-32.25l36.6 -104.32c-74.8,-59.82 -107.98,-4.5 -172.93,38.59 -64.71,42.93 -112.64,46.54 -141.34,127.5 -57.24,161.46 -58.68,320.27 -25.2,486.2z"/>
  <path class="fil25" d="M3902.67 3491.66c45.48,7.63 117.04,40.56 147.88,32.94 22,-5.43 91.38,-63.78 102.96,-82.18l-107.27 -89.56 0.44 -37.83 -117.39 -58.23 -33.16 -16.26c-12.35,50.62 1.78,191.87 6.54,251.12z"/>
  <path class="fil58" d="M8581.12 1349.12l17.02 68.09c92.65,119.89 96.14,109.46 244.52,123.66 350.75,33.55 198.38,152.35 314.74,390.44 31.64,64.74 115.93,135.46 164.48,205.04l4.62 6.83 49.57 49.14c-18.99,-67.57 -105.41,-115.8 -124.15,-186.07 -283.32,-306.89 117.94,-491.18 -514.64,-496.48 -87.7,-23.94 -116.51,-198.78 -138.76,-283.72l-56.06 -22.38c12.6,67.88 37.79,66.81 38.66,145.45z"/>
  <path class="fil59" d="M4088.56 5736.04c107.96,45.06 217.25,40.26 331.99,44.38 60.2,2.18 121.33,6 181.55,9.24 81.84,4.39 35.9,-0.76 31.97,24.33l37.59 16.37c172.53,-5.33 291.81,-36.08 455.48,-53.79 -19.6,-42.42 2.92,-18.04 -35.79,-39.9l-28.4 7.81c-214,70.15 -335.78,18.08 -545.39,6.59 -94.62,-5.17 -190.19,-6.26 -283.61,-23.24 -89.19,-16.22 -153.67,-36.63 -247.39,-45.37l-32.79 5 134.8 48.59z"/>
  <path class="fil60" d="M5127.13 5776.56c-163.67,17.71 -282.95,48.47 -455.48,53.79 -71.11,12.75 -300.64,46.47 -348.4,81.34 205.57,-26.13 329.26,-87.79 539.35,-50.58 80.75,14.31 180.01,-5.19 263.96,-11.39 122.61,-9.06 136.6,-26.38 216,-112.5l-215.43 39.33z"/>
  <path class="fil29" d="M6969.98 3241.23l27.39 -2.07 15.46 -74.56c61.87,-230.89 142.97,-469.26 -69.49,-646 65.27,124.92 4.96,207.85 59.26,358.35 33.72,93.44 -22.89,255.33 -32.62,364.27z"/>
  <path class="fil61" d="M5366.61 3419.91l-4.88 2.37 -34.31 34.6 -34.49 14.23c-364.76,328.34 -625.84,197.91 -1062.75,156.32 -98.78,-13.95 -222.25,-36.73 -320.92,-30.68l-24.23 -1.01 30.16 28.58 34.11 7.58c228.45,5.74 493.61,47.27 724.17,75.16 166.84,1.7 250.42,23.09 405.76,-65.62 101.72,-58.1 208.55,-136.47 313.59,-183.73l14.01 -40.47 1.47 -25.97 -41.69 28.64z"/>
  <path class="fil62" d="M2697.4 5469.01l41.4 -0.4 29.73 -13.69c58.58,-79.94 293.08,-36.68 389.13,-47 131.51,48.4 173.54,91.86 287.01,167.82 85.47,57.21 277.33,57.72 379.89,69.15l-32.27 -33.63 -5.48 11.01 -137.67 -36.37c-52.45,-10.65 -148.95,-34.21 -194.19,-61.63 -65.81,-39.88 -27.53,-68.08 -136.42,-99.71 -109.63,-31.84 -331.37,-42.29 -444.56,-30.72 -65.55,6.3 -132.03,26.37 -176.56,75.16z"/>
  <path class="fil63" d="M5169.69 2900.24c-10.5,138.72 -96.23,390.83 -238.22,437.2l-96.81 27.5c-48.03,24.59 -87,16.88 -143,39.99 -40.3,16.64 -105.87,19.86 -146.45,5.47l-204.61 13.95 -21.32 -1.37 -5.77 18.61c189.65,8.4 539.24,4.16 696.24,-117.73 38.88,-45.99 37.82,-49.45 95.3,-70.6 46.6,-39.24 44.48,-48.32 62.55,-109.5 -23.18,11.61 -13.76,-5.86 -23.09,17.09l-30.57 47.56 82.66 -274.58c3.35,-51.12 23.15,-163.44 -4.33,-200.72 -19.03,60.63 3.26,103.16 -22.6,167.11z"/>
  <path class="fil64" d="M3340.79 3323.27c123.69,142.72 146.73,-155.61 100.43,-229.51 -49.38,-32.35 -96.9,-23.99 -140.63,13.12 -31.83,73.78 30.24,123.63 40.21,216.39z"/>
  <path class="fil16" d="M3919.7 4005.74c-31.31,-26.09 -48.19,-11.73 -67.75,-57.03 -13.97,-32.35 -8.69,-66.81 -35.87,-93.49 -42.76,-42 -165.11,-43.22 -137.91,59.74 15.47,58.56 38.78,127.97 103.14,141.25 21.87,4.52 213.08,11.74 138.39,-50.47z"/>
  <path class="fil11" d="M5025.24 2481.79c-29.26,-36.98 -57.18,-76.64 -87.66,-112.8 -42.58,-50.53 -76.39,-20.9 -137.98,-43.17 -136.74,-49.42 -79.58,-153.16 -230.95,-186.76 37.39,88.8 97.28,164.58 154.23,240.78 44.24,59.16 98.57,31.44 160.35,49.11 51.39,14.7 72.13,36.58 142.01,52.83z"/>
  <path class="fil57" d="M2791.84 6009.45c191.7,57.27 181.31,75.18 395.31,56.94 159.42,-13.58 312.68,-5.68 472.84,-15.75 -46.85,-38.5 -42.61,-25.01 -106.85,-18.9 -102.38,2.8 -199.39,-7.86 -301.46,0.09 -91.74,7.14 -206.23,23.53 -294.75,-1.63 -209.77,-59.6 -294.5,-67.14 -405.14,-208.95 -22.58,-36.02 -14.64,-52.96 -17.53,-96.53 -55.27,98.16 -11.35,115.18 52.12,185.14 109.94,121.21 102.63,49.53 205.47,99.59z"/>
  <path class="fil48" d="M6458.4 4660.04c-42.5,55.68 -28.2,23.94 -55.6,93.48 -22.66,57.53 -48.58,33.88 -35.6,113.46l42.09 15.62c109.59,-60.36 261.91,-257.66 354.34,-276.16l10.3 -0.8 13.95 -58.66c-80.6,24.94 -84.18,34.78 -143.04,92.58 -25.72,25.28 -56.22,37.27 -91.53,46.9 -47.14,12.84 -54.14,-5.74 -94.91,-26.43z"/>
  <path class="fil26" d="M3724.36 3597.33l45.18 7.97c-14.27,-41.27 -29.77,-77.48 -44.1,-117.19 -29.17,-80.83 -9.34,-68.75 19.1,-131.47l-3.62 -25.78 -16.4 0 -7.77 20.08c-40.13,-54.96 -13.59,-89.79 24.18,-135.99l55.69 -9.59 20.63 -13.9 -79.22 3.64c-84.97,-11.51 -49.9,10.15 -116.32,33.65 8.73,31.62 29.4,66.84 14.38,90.53 -46,-24.82 -96.91,-259.87 -123.92,-321.83 3.97,69.95 44.37,276.75 83.34,329.15 36.06,48.48 116.98,212.43 128.84,270.73z"/>
  <path class="fil65" d="M2155.14 2587.7c-64.89,82.49 -189.62,370.47 -214.01,476.32 -49.76,215.91 19.82,393.42 83.64,590.82l8.1 -10.49c-5.63,-71.85 -21.65,-81.12 -35.55,-142.81 -23.8,-60.64 -39.65,-273.49 -42.98,-346.7 64.57,-242.39 11.87,-73.8 98.35,-298.64 24.86,-64.62 107.94,-189.48 128.8,-258.66l-26.35 -9.84z"/>
  <path class="fil31" d="M3600.45 3096.16l-15.33 0.35c52.21,102.81 72.25,51.72 152.92,98.57l79.22 -3.64 41.95 2.04c45.81,8.98 117.48,53.86 164.52,75.98l14.69 -13.8c-19.37,-42.47 12.93,-28.68 -30.53,-72.97 -30.07,-30.65 -58.11,-40.23 -83.3,-78.77 -25.13,-38.44 -30.34,-58.61 -63.89,-97.8 -32.44,-37.89 -66.23,-39.76 -65.94,-83.69 34.42,-30.84 42.45,-20.27 86.71,-10.17 -14.71,-4.52 -183.76,-55.49 -156.27,-8.11 111.95,192.83 229.76,286.7 55.46,277.86 -80.79,-4.09 -129.31,-23.3 -180.22,-85.85z"/>
  <path class="fil45" d="M7156.61 4087.31l39.49 -19.94 11.49 20.27 38.85 -62.12 -14.73 -22.08c58.45,-166.1 165.84,-216.57 212.68,-365.27 22.56,-71.62 -10.65,-95.46 65.98,-140.41 16.42,8.4 10.01,7.89 8.97,-12.07 -33.29,-47.75 17.64,-73.82 -22.39,-155.25 -21.44,138.26 -98.93,273.06 -152.22,403.09 -30.95,75.52 -64.73,99.71 -103.46,163.38 -34.65,56.92 -61.78,127.78 -84.65,190.39z"/>
  <path class="fil66" d="M4315.39 2749.97c31.24,15.73 33.06,48.99 63.92,80.88l-4.92 38.84c-42.37,-4.5 -61.97,-80.1 -58.99,-119.72zm0 0c-31.78,-8.3 -45.49,-4.83 -24.16,-41.57 30.26,18.27 16.31,3.12 24.16,41.57zm-121.11 270.79l1.4 17.4c51.16,30.09 37.02,45.04 97.64,52.19l12.4 -124.86 18.8 -54.63c48.78,14.9 15.6,46.44 20.46,100.59l28.9 11.46 12.98 -24.34 -23.71 -12.59c24.37,-85.38 47.76,-44.55 23.66,-151.84l-7.5 -3.29 -56.59 -133.68c-29.73,-8.86 -15.3,1.18 -31.39,-11.13 -56.68,33.34 -24.73,103.43 -27.25,156.9 -0.37,7.81 -25.61,170 -26.44,176.43l-43.36 1.39z"/>
  <path class="fil67" d="M1650.15 7521.58c57.2,12.23 64.38,52.17 85.92,97.23 31.24,65.33 58.64,24.06 103.1,77.12 95.44,30.43 297.32,13.85 338.64,67.23 60.18,-1.19 183.09,42.6 238.16,68.74 -56.83,-107.7 -334.67,-139.41 -443.61,-153.27 -75.64,-9.63 -154.69,-16.89 -187.36,-89.13 -18.22,-40.3 -110.73,-97.66 -149.68,-124.91l-2.34 19.96 17.17 37.03z"/>
  <path class="fil68" d="M7390.51 5675.74l24.59 30.26c67.82,-37.45 152.98,-166.34 186.85,-236.17 108.46,-155.97 205.89,-319.68 304.65,-482.46l16.33 -33.87 12.94 -87.79c-59.2,76.63 -69.34,131.78 -134.26,212.71 -54.83,68.37 -90.96,256.55 -258.17,416.93 -66.51,63.8 -86.33,125.96 -152.94,180.39z"/>
  <path class="fil39" d="M630.6 2075.73l-0.16 -0.92c-22.23,78.16 -51.66,108.75 -67.18,199.6 -13.11,76.64 -36.21,128.91 -88.07,185.89l2.59 10.29c56.11,4.28 45.19,-3.12 63.89,-48.28 10.05,-24.23 22.06,-48.91 31.2,-75.66 10.6,-31.03 39.51,-141.32 43.42,-172.19 31.83,-33.17 81.11,-81.17 109.03,-112.57 32.59,-36.64 41.46,-76.44 86.32,-107.21 50.53,-141.05 71.62,-102.54 162.98,-179.32 24.54,-20.63 116.98,-160.83 127.03,-192.18 -41.95,44.14 -71.05,89.62 -111.9,132.95 -40.05,42.5 -83.06,72.15 -123.57,112.08 -79.5,78.36 -140.23,194.54 -235.58,247.51z"/>
  <path class="fil69" d="M5266.41 2938.3l4.48 45.15c63.89,106.11 -36.2,365.48 -16.48,473.05l38.52 14.61 34.49 -14.23 34.31 -34.6 -56.31 -0.01c-2.45,-7.06 31.06,-257.86 32.03,-300.32 2.57,-112.4 -34.15,-195.62 -27.88,-308.2 -26.95,33.93 -35.32,81.79 -43.15,124.55z"/>
  <path class="fil26" d="M4050.28 2966.04l144 54.72 43.36 -1.39c0.83,-6.43 26.07,-168.62 26.44,-176.43 2.52,-53.48 -29.43,-123.57 27.25,-156.9l-30.29 -35.16c-52.39,32.55 -69.87,296.65 -210.76,315.16z"/>
  <path class="fil53" d="M4786.82 2131.66c115.44,104.06 173.82,215.99 244.81,350.81 32.3,77.34 70.42,159.23 31.49,245.27l1.25 41.52 -8.78 44.71 -18.22 166.06c26.69,15.18 6.86,6.52 23.91,-7.65l28.96 -199.79c41.03,-336.3 -45.08,-321.4 -189.41,-575.36l-12.87 -30.68 -63.81 -59.06c-12.21,35.1 33.63,32.87 -37.33,24.16z"/>
  <path class="fil28" d="M3769.54 3605.3l113.56 -11.64 16.45 -6.93c-46.67,-53.16 -40.65,-139.93 -59.07,-210.27l-95.94 -19.82c-28.44,62.73 -48.28,50.64 -19.1,131.47 14.33,39.71 29.83,75.92 44.1,117.19z"/>
  <path class="fil45" d="M6258.47 2387.5c24.23,117.71 46.89,87.95 89.8,168.25 98.1,183.52 59.3,157.84 173.92,338.43 34.58,54.5 33.68,111.89 75.1,181.13 -1.38,-126.76 -69.77,-181.27 -78.36,-286.32l-159.37 -303.24c-54.07,-50.15 -19.32,-70.27 -87.18,-113.47 -1.35,19.37 4.16,15.22 -13.9,15.22z"/>
  <path class="fil70" d="M2331.86 7830.56c65.16,17.31 159.76,81.3 201.94,134.93 40.66,12.83 118.32,87.99 157.47,120.89 47.32,39.75 128.86,78.91 150.19,134.64l44.71 0c-3.81,-56.89 0.63,-65.66 -51.63,-83.98 -61.71,-21.65 -37.13,-24.35 -87.35,-52.38 -74.99,-41.86 -90.71,-83.9 -142.56,-143.58 -78.44,-2.62 -116.71,-72.62 -188.67,-109.17 -55.07,-26.14 -177.98,-69.92 -238.16,-68.74 15.14,15.54 119.95,50.86 154.06,67.39z"/>
  <path class="fil67" d="M8613.23 1451.34c75.04,184.95 220.11,85.17 393.03,151.44 84.9,32.55 46.8,104.19 69.09,183.05 12.18,43.1 57.45,158.93 77.97,197.91l168.56 152.6c-48.56,-69.58 -132.84,-140.31 -164.48,-205.04 -116.37,-238.09 36.01,-356.89 -314.74,-390.44 -148.38,-14.19 -151.87,-3.77 -244.52,-123.66l15.09 34.13z"/>
  <path class="fil57" d="M2618.4 1979.72c-129.58,108.89 -114.12,200.89 -116.06,356.44l-25.99 164.92 30.44 192.69 -1.21 137.9c-4.98,50.62 -8.41,15.74 18.98,26.16 18.55,-120.9 -3.67,-149.38 -14.69,-256.7 -6.26,-122.43 28.76,-229.69 30.68,-357.39 2.95,-197.1 102.41,-197.89 112.76,-260.66l-34.91 -3.38z"/>
  <path class="fil71" d="M5019.46 2691.39c33.07,23.81 29.3,21.72 17.94,63.11 -34.49,-6.86 -60.27,-39.09 -17.94,-63.11zm-188.13 -134.14l-8.74 20.74 35.92 51.71c46.52,25.29 69.34,47.23 94.86,93.49l69.2 67.55 20.9 3.23 20.9 -24.68 -1.25 -41.52 5.25 -61.4c-74.39,-48.89 -56.96,-5.49 -112.6,-90.19 -27.15,-41.31 -69.96,-66.93 -121.18,-57.78l-3.26 38.87z"/>
  <path class="fil72" d="M6455 5041.91c253.22,-44.93 250.58,-93.51 563.54,-144 106.83,-17.23 130.5,-12.26 136.69,96.46l6.45 44.39c7.97,-62.46 53.67,-192.14 -45.14,-188 -49.73,2.1 -179.9,30.16 -240.42,39 -107.71,15.75 -332.08,91.93 -421.12,152.15z"/>
  <path class="fil73" d="M3220.2 3705.71l163.32 123.61c35.13,16.97 146.67,88.99 170.87,87.78 -4.83,-38.74 -46.65,-57.35 -71.68,-86.33 -24.32,-75.04 -94.7,-122.64 -123.78,-194.25l-63.02 -47.38c16.22,54.62 36.13,36.54 32.81,99.73 -41.09,30.52 -59.39,23.43 -108.51,16.85z"/>
  <path class="fil20" d="M4568.65 2139.06c0.46,-53.24 -9.69,-65.4 51.58,-63.42 -55.02,-25.76 -154.69,-0.38 -195.34,-23.58 26.54,-29.6 125.87,-20.62 168.25,-19.8 0,-15.17 3.63,-12.17 -11.22,-8.55 -89.99,-6.36 -123.36,-10.6 -207,24.92 -39.17,16.64 -133.7,31.3 -134.03,82.18 43.17,37.88 117.84,24.99 168.44,7.83 62.25,-21.12 95.11,-7.86 159.32,0.42z"/>
  <path class="fil26" d="M1242.34 1453.59c-19.27,43.74 -96.91,113.45 -140.68,129.59 -10.06,31.35 -102.49,171.54 -127.03,192.18 -91.36,76.78 -112.45,38.27 -162.98,179.32 132.22,-181.09 127.46,-102.73 196.9,-175.64 30.25,-31.76 44.01,-75.12 72.04,-110.88 23.72,-30.25 60.44,-67.22 88.86,-93.6 70.65,-65.55 119.87,-108.73 206.9,-154.58 100.59,-52.98 147.73,-32.64 216.37,-137.71 -62.47,35.73 -106.59,67.94 -179.16,88.09 -93.1,25.88 -86.71,61.33 -171.21,83.22z"/>
  <path class="fil74" d="M4038.42 3255.66l60.85 -31.83c-1.29,-3.37 -81.55,-98.09 -99.72,-130.98 -25.29,-45.76 -5.2,-42.62 -51.24,-76.82 -31.21,-23.19 -35.22,-27.45 -58.89,-59.64l14.76 -9.18c13.7,-25.43 27.16,-16.33 56.02,-15.46l-25.85 -13.02 -52.88 -6.46c-44.27,-10.1 -52.29,-20.67 -86.71,10.17 -0.29,43.93 33.5,45.8 65.94,83.69 33.55,39.18 38.76,59.36 63.89,97.8 25.19,38.54 53.22,48.11 83.3,78.77 43.46,44.29 11.16,30.5 30.53,72.97z"/>
  <path class="fil20" d="M676.75 5485.98c40.99,-132.11 51.97,-244.25 149.71,-344.54 36.01,-36.96 88.71,-88.6 121.26,-125.44 33.86,-38.32 66.66,-98.63 101.34,-142.63l-289.91 286.11c-55.97,59.1 -115.77,51.88 -94.86,150.31 12.17,57.32 13.95,117.15 12.46,176.18z"/>
  <path class="fil75" d="M3152.34 2634.61c19.69,-49.13 25.99,-108.07 56.49,-146.12 45.39,-56.63 70.38,-51.14 117.91,-85.56 45.79,-33.16 120.86,-195.26 188.72,-152.79 -11.07,-104.49 -32.65,-64.91 -94.91,-30.35 -99.55,55.25 -52.82,59.12 -109.54,109.88 -110.71,99.09 -160.02,142.48 -158.68,304.95z"/>
  <path class="fil67" d="M5466.93 4084.55c60.03,18.46 162.23,17.33 232.09,25.53 85.75,10.07 156.2,-14.56 246.93,-13.61 36.3,-1.61 67.58,-0.7 98.11,-19.98l-26.29 -15.02c-104.11,-25.29 -189.01,-20.01 -294.35,-12.63 -92.68,6.5 -198.82,-16.04 -295.13,-19.47 84.63,42.1 232.09,20.79 281.47,55.7l-242.83 -0.53z"/>
  <path class="fil76" d="M5237.71 2905.28c-17.03,46.81 -19.09,78.84 -40.18,125.33 -19.39,42.76 -37.02,85.85 -53.01,130.26 9.32,-22.95 -0.09,-5.48 23.09,-17.09l98.81 -205.47c7.83,-42.76 16.21,-90.62 43.15,-124.55 -7.77,-63.41 26.13,-130.32 32.13,-194.95l6 -100.11c-0.16,-80.01 -5.73,-64.26 -65.66,-103.89 -36.27,50.59 -7.7,44.6 15.5,88.03 22.95,42.94 13.28,97.57 5.52,144.14 -11.78,70.66 -38.51,193.97 -65.34,258.32z"/>
  <path class="fil18" d="M4467.59 2963.58l-14.94 38.52 -6.4 20.72 34.59 -14.56c119.91,-41.35 272.36,-184.62 324.59,-198.16l26.29 -19.41 -30.07 1.51 -151.49 -4.28 -2.91 18.28 31.03 -0.82c-9.69,24.75 -80.11,57.11 -109.11,70.71 -67.74,31.77 -43.38,54.73 -101.58,87.49z"/>
  <path class="fil28" d="M5347.7 2518.69l-6 100.11 29.24 -41.08c18.15,3.99 109.93,80.78 127.94,98.19 55.36,53.55 59.94,121.62 63.88,193.35 26.44,-55.97 23.62,-82.3 20.94,-143.86 -3.16,-72.27 -3.73,-70.71 -59.5,-107.8 -36.61,-24.35 -126.08,-134.27 -152.18,-143.48l-24.32 44.57z"/>
  <path class="fil77" d="M3028.01 3524.78c-38.54,-76.98 -22.03,-233.26 -1.51,-318.44l30.5 -0.75 -9.64 -55.02 -28.82 -35.1c-39.6,57.55 -122.71,61.49 -81.35,192.73 24.67,78.29 27.88,169.37 90.81,216.57z"/>
  <path class="fil35" d="M5236.4 2456.55l1.3 448.72c26.83,-64.35 53.57,-187.66 65.34,-258.32 7.77,-46.57 17.43,-101.2 -5.52,-144.14 -23.2,-43.43 -51.77,-37.44 -15.5,-88.03l0.29 -10.42 -41.79 6.31 -4.14 45.87z"/>
  <path class="fil33" d="M617.66 5789.53c-13.12,171.17 -43.65,272.13 -0.85,449.68 24.2,100.43 71.82,271.41 136.35,349.85l-50.86 -168.94c-38.63,-100.59 -68.36,-183.62 -80.78,-292.07 -16.17,-141.2 13.4,-206.54 22.32,-334.37 1.05,-67.04 22.63,-82.8 12.17,-152.02 -32.45,36.92 -33.29,99.39 -38.35,147.86z"/>
  <path class="fil78" d="M3545.42 2373.93l-6.84 32.24c9.6,22.8 -19.95,146.57 -25.49,183.52 -13.97,93.15 -15.69,154.53 1.04,247.78 14.79,-132.61 -13.07,-302.07 99.52,-400.37 5.79,-77.62 49.23,-144.16 -9.79,-196.15l-28.71 20.39c-28.95,-29.66 -16.4,-33.25 -36.6,-71.58 4.3,67.57 56.05,148.71 6.88,184.17z"/>
  <path class="fil79" d="M5518.68 2159.95l9.62 22.17c44.94,-63.79 -8.62,-159.03 58.13,-227.18 59.34,-16.51 64.83,-2.59 118.84,2.1l31.88 -4.02 -65.85 -32.01c-53.11,28.87 -102.17,14.63 -127.01,-40.45 -24.81,-55.01 -33.79,-71.04 -92.62,-97.99 14.07,69.58 43.38,72.3 48.23,172.09 3.81,78.7 -5.1,127.44 18.79,205.3z"/>
  <path class="fil48" d="M4433.43 2456.17c4.52,19.1 -2.86,9.67 8.55,23.43 80.39,-12.73 67.04,9.44 114.71,36.4 12.06,6.83 99.88,25.57 130.8,34.99 58.74,-31.72 6.64,-30.83 75.24,-24.11l-4.33 -7.53c-42.37,-26.05 -53.22,-49.88 -87.49,-75.68 -22.29,-16.78 -75.73,-42.69 -102.55,-56.25l-15.59 -0.89 -13.78 71.66c-50.33,18.33 -56.59,10.39 -105.58,-2.02z"/>
  <path class="fil3" d="M8580.18 1530.33c-108.17,42.83 -78.36,162.98 38.93,151.53 125.41,-12.23 60.08,-190.73 -38.93,-151.53z"/>
  <path class="fil62" d="M4428.09 2788.79c50.57,60.74 43.8,37.61 43.19,117.65 23.35,-41.41 127.13,-90.69 175.96,-100.24l2.91 -18.28c-226.09,13.41 -155.41,-136.84 -233.31,-147.48 -28.52,46.99 -5.68,100.97 11.25,148.35z"/>
  <path class="fil43" d="M3600.45 3096.16c56.44,22.61 87.83,64.29 146.47,37.47 30.74,-56.94 15.65,-128.08 -51.69,-148.2 -100.57,-30.03 -94.8,35.59 -94.77,110.73z"/>
  <path class="fil38" d="M7278.53 5781.24c-79.96,40.52 -155.51,65.08 -245.97,61.6 -3.99,23.1 -59.61,61.3 -83.37,74.06 -73.21,39.33 -63.97,-22.96 -92.34,72.23 56.65,-6.31 45.71,-17.56 105.08,-19.85 126.4,-103.75 339.72,-134.99 424.57,-247.35l-107.97 59.31z"/>
  <path class="fil78" d="M2974.56 2524.39c28.62,-4.07 20.86,-10.02 21.94,19.43 60.54,-72.96 51.31,-129.42 79.44,-216.48 17.81,-55.11 106.21,-227.22 108.46,-245.97 7.22,-60.04 -62.32,15.25 -111.48,142.47 -43.04,111.37 -69.77,182.65 -98.35,300.55z"/>
  <path class="fil33" d="M1602.59 7482.4l30.39 2.15 2.34 -19.96c-105.78,-78.16 -175,1.95 -241.43,-41.5 -40.54,-26.52 -17.18,-40.85 -91.65,-62.79 -46.09,-13.59 -71.96,-10.25 -117.27,-14.31 25.18,33.44 135.04,103.48 176.36,119.82 85.02,33.64 162.81,-27.83 241.25,16.59z"/>
  <path class="fil11" d="M5367.5 2050.77l144.99 229.55 27.47 -11.53 -7.53 -52.43 -4.12 -34.25 -9.62 -22.17c-29.78,-33.15 -95.19,-218.39 -175.54,-157.55l24.35 48.37z"/>
  <path class="fil80" d="M3970.76 1635.29c-53.16,20.46 -137.98,23.63 -135.9,81.75 39.83,12.59 25.44,10.24 68.61,-5.36 68.85,-43.43 316.76,-59.93 344.5,-100.87 -37.73,-53.41 -213.87,14.32 -277.21,24.48z"/>
  <path class="fil53" d="M4746.61 1391.18c110.47,7.67 280.05,59.55 373.74,115.63l9.97 -10.35c-39.92,-77.01 -194.83,-121.18 -275.01,-123.61 -65.08,-7.01 -278.07,-25.91 -330.79,-3.49 17.89,16.69 178.07,12.64 222.08,21.81z"/>
  <path class="fil81" d="M6044.37 5018.87c-6.16,19.84 -106.2,167.91 -124.01,192.24 -16.08,69.62 -40.81,83.7 -73.35,139.14 79.82,-43.48 58.15,-57.74 105.39,-117.95 40.5,-51.59 52.23,-111.08 94.33,-127.72 26.44,-117.33 164.77,-193.09 173.74,-320.41 -65.6,69.39 -106.8,179.06 -176.1,234.7z"/>
  <path class="fil36" d="M6159.69 3057.3c-47.72,-83.44 -72.51,-66.55 -120.73,-128.15 -32.68,-41.72 -64.23,-95.46 -95.01,-140.37 -79.19,-115.58 -100.98,-187.58 -248.64,-226.09 115.9,103.15 135.62,112.75 226.32,246.67 77.83,114.93 109.56,181.22 238.06,247.94z"/>
  <path class="fil82" d="M41.4 3775.76c-44.43,74.78 -20.38,158.68 0.19,238.3 24.43,94.57 3.78,120.9 65.56,211.47 -1.49,-74.05 -5.49,-99.07 5.53,-173.01 9.46,-63.56 -25.51,-7.51 -42.74,-74.71 -6.4,-25.01 8.08,-223.56 -28.54,-202.06z"/>
  <path class="fil76" d="M5644.71 2897.45c16.08,61.74 -24.24,220.11 -59.88,269.67l-75.39 108.01c-14.31,52.62 -49.13,73.97 -92.28,104.2 -19.64,-3.91 -5.02,-2.76 -8.86,11.96l-1.47 25.97c63.97,-32.7 107.44,-112.91 159.81,-154.47l16.27 -22.13 30.36 -45.15 23.72 -57.93 36.15 -122.43 12.11 -116.03 -25.51 -42.31 -15.04 40.65z"/>
  <path class="fil66" d="M7278.53 5781.24l107.97 -59.31 28.61 -15.93 -24.59 -30.26c-24.33,-12.82 -26.18,-5.15 -49,-13.3 -22.63,-8.08 -26.78,-15.28 -49.96,-28.16l-60.11 5.76c-22.61,69.36 -33.8,132.39 47.09,141.2z"/>
  <path class="fil25" d="M4463.46 2500.25c64.95,11.41 62.81,20.22 117,44.87 47.66,21.7 68.62,12.89 111.92,27.81 30.68,31.24 27,60.8 64.55,84.3 17.19,10.75 69.15,33.31 92.7,45.31l-42.28 -105.06 -44.61 -70.6c-68.6,-6.72 -16.5,-7.6 -75.24,24.11 -30.92,-9.43 -118.75,-28.16 -130.8,-34.99 -47.67,-26.96 -34.32,-49.13 -114.71,-36.4l21.48 20.65z"/>
  <path class="fil65" d="M6819.95 5339.59c53.12,-0.49 178.08,-88 218.93,-127.68l38.32 -33.32 42.62 -48.3 -1.96 -4.01 43.8 -87.51 -6.45 -44.39c-62.44,80.31 -66.95,129.55 -152.98,193.86 -55.98,41.85 -156.82,95.46 -182.28,151.36z"/>
  <path class="fil45" d="M4081.92 3143.87c20.81,63.13 37.99,21.49 89.91,60.39l13.13 -23.43 14.07 -7.68 -15.78 -39.21c20.61,-44.81 19.6,-38.89 3.9,-86.57l-177.08 -52.72 67.14 41.46c0.16,21.58 -7.88,12.06 -7.93,42.34 -0.05,22.01 8.17,43.69 12.64,65.42z"/>
  <path class="fil35" d="M5275.66 2013.45c9.75,21.36 31.67,52.68 45.55,77.83 25.35,45.91 44.13,37.26 68.63,71.48 50.07,69.89 44.58,98.1 116.22,165.7 26.39,-7.51 23.6,13.73 17.53,-21.28l-11.11 -26.86 -144.99 -229.55 -77.63 -60.9c-22.51,10.69 -11.87,-5.16 -14.21,23.58z"/>
  <path class="fil80" d="M8561.22 3863.67c-3.66,129.8 -51.78,109.89 -80.6,191.04 -27.4,77.19 -65.79,141.3 -116.22,205.92l43.23 -2.85c78.98,-97.67 157.32,-275.54 209.24,-392.25l3.11 -26.69c-28.86,-7.05 -29.38,5.53 -58.77,24.83z"/>
  <path class="fil33" d="M2768.53 5454.92c58.34,-19.94 80.35,-21.6 142.11,-13.58 52.47,4.34 88.07,2.19 139.87,17.24 16.04,4.66 53.78,15.35 65.8,20.38 29.45,12.35 21.77,17.55 61.4,29.69 1.21,-57.16 6.71,-51.95 -20.05,-100.74 -96.05,10.32 -330.56,-32.94 -389.13,47z"/>
  <path class="fil38" d="M4078.01 2907.2c-12.35,37.54 -13.92,24.16 -51.73,38.06l24 20.79c140.89,-18.51 158.37,-282.61 210.76,-315.16l30.29 35.16c16.09,12.31 1.66,2.28 31.39,11.13 -24.78,-48.73 -18.95,-72.46 -72.76,-79.68 -46.98,24.3 -100.14,229.38 -171.95,289.71z"/>
  <path class="fil8" d="M4759.99 2715.2c42.03,20.81 39.88,0.54 69.95,44.82l-28.3 32.17 30.07 -1.51 6.74 -2.83 16.48 -60.49 -5.31 -24.83c-23.54,-11.99 -75.5,-34.55 -92.7,-45.31 -37.55,-23.49 -33.87,-53.06 -64.55,-84.3 -43.29,-14.92 -64.26,-6.11 -111.92,-27.81 -54.19,-24.66 -52.05,-33.46 -117,-44.87 27.76,37.75 115.71,82.6 162.84,97.21 64.32,19.94 87.97,62.85 133.69,117.73z"/>
  <path class="fil62" d="M3358.92 3636.51c29.09,71.61 99.47,119.22 123.78,194.25 43.08,16.38 26.88,16.7 70.18,9.1 26.45,-73.86 -23.6,-197.15 -79.98,-244.97 23.85,54.15 42.02,64.62 24.16,125.88 -71.85,15.49 -71.2,-51.52 -138.14,-84.26z"/>
  <path class="fil51" d="M7117.77 927.76l-3.11 15.88c32.91,17.86 35.07,31.92 63.86,40.5 23.68,7.06 51.99,4.54 83.58,13.46 89.32,25.2 56.59,33.78 163.25,31.06 -41.17,-40.61 -46,-23.81 -92.86,-49.42 -40.67,-44.55 -89.14,-37.55 -146.09,-55.43 -63.35,-19.88 -63.83,-45.79 -113.57,-75.74 13.23,52.24 41.18,60.13 44.94,79.69z"/>
  <path class="fil65" d="M3096.21 3890.49c53.9,54.92 213.27,79.29 293.59,106.36l34.84 -30.82 -21.74 -25.48 -21.13 11.41c-34.67,-22.34 -31.81,-27.47 -71.14,-30.92 -33.97,-0.42 -126.97,-30.79 -154.1,-50.13l-54.25 0.15 -6.09 19.42z"/>
  <path class="fil53" d="M5577.46 2996.28l-10.84 37.3c-4.72,40.46 -3.71,36.54 -32.77,63.31l0.81 48.59 2.54 30.82 7.38 27.77 37.63 -52.04 2.62 15.08c35.64,-49.56 75.96,-207.93 59.88,-269.67 -37.61,41.46 -16.8,56.16 -67.24,98.83z"/>
  <path class="fil45" d="M6787.88 4546.99l-13.95 58.66c42.88,-13.98 53.87,-18.02 75.88,-58.53 15.59,-87.95 43.58,-47.46 82.85,-115.1 25.76,-44.36 56.13,-85.03 83.51,-129.26 -39.36,16.9 -118.96,80.51 -141.51,117.04 -40.79,66.08 -56.94,50.87 -86.79,127.19z"/>
  <path class="fil53" d="M5802.85 2027.95c37.22,15.32 229.97,158.9 255.86,190.82l28.97 13.27c63.66,21.91 20.56,13.75 33.75,-16.05 -127.16,-83.36 -239.62,-195.4 -384.29,-262.97l-31.88 4.02c28.15,29.02 23.71,12.77 53.06,31.24 28.43,17.89 17.86,23.33 44.52,39.68z"/>
  <path class="fil52" d="M3740.92 3330.85l3.62 25.78 95.94 19.82c18.42,70.34 12.4,157.11 59.07,210.27 -9.15,-70.56 -17.95,-124.06 -24.63,-196.12 -6.48,-69.95 -23.57,-114.37 -98.07,-114.37 -30.03,25.23 -27.29,16.37 -35.92,54.62z"/>
  <path class="fil8" d="M3514.12 2837.47c10.22,49.19 20.8,69.53 13.65,121.94l25.1 3.69c-10.31,-115.14 -4.45,-178.47 -0.52,-290.86 2.37,-67.71 40.78,-166.23 61.28,-235.14 -112.59,98.3 -84.73,267.76 -99.52,400.37z"/>
  <path class="fil35" d="M4480.83 3008.26c8.25,31.26 -29.39,33.37 27.23,21.12l140.75 -59.2 13.17 -8.6 87.24 -72.8 62.03 -49.94 -5.83 -28.74c-52.23,13.54 -204.68,156.82 -324.59,198.16z"/>
  <path class="fil47" d="M3528.16 2414.29l-36.6 104.32c2.47,55.26 -9.8,98.9 -11.68,153.5 -1.97,57.36 3.61,114.41 6.5,171.63l-3.26 16.24 25.38 93.19 17.43 16.14 1.83 -9.92c7.15,-52.4 -3.43,-72.75 -13.65,-121.94 -16.73,-93.25 -15,-154.63 -1.04,-247.78 5.54,-36.96 35.1,-160.72 25.49,-183.52l-10.41 8.12z"/>
  <path class="fil3" d="M4806.13 2511.77l25.2 45.48 3.26 -38.87c51.21,-9.15 94.03,16.47 121.18,57.78 55.64,84.7 38.21,41.31 112.6,90.19 -13.75,-62.45 -31.17,-121.64 -93.06,-142.81 -34.51,-11.8 -135.14,-52.19 -166.3,-51.31l-2.87 39.54z"/>
  <path class="fil41" d="M6434.11 5034.93l-21.14 -3.73c-37.68,20.43 -107.69,59.49 -143.87,34.65 6.64,-15.38 62.16,-45.42 90.22,-80.53 -57.49,20.98 -180.76,77.01 -183.41,146.73 49.16,35.54 223.37,-53.06 258.2,-97.13z"/>
  <path class="fil83" d="M4671.65 6318.99c9.05,-37.82 -14.87,-44.94 -28.59,-95.29 -9.03,-33.13 -29.52,-98.09 -76.54,-53.35 -51.33,48.83 13.44,191.37 105.13,148.64z"/>
  <path class="fil47" d="M2456.44 3063.31c50.38,194.74 129.96,231.36 254.88,362.17l18.24 -4.67c-94.27,-152.39 -260.34,-217.97 -253.68,-441.02l-18.71 16.26 -0.73 67.26z"/>
  <path class="fil84" d="M6409.29 4882.61l1.87 7.16 6.38 27.2c90.38,-67.13 286.48,-221.77 346.09,-310.52 -92.43,18.5 -244.76,215.8 -354.34,276.16z"/>
  <path class="fil63" d="M4305.72 2965.49l-12.4 124.86 -10.91 24.71c-1.21,22.05 -4.9,12.7 23.67,17.19l60.97 -32.6c10.73,-12.02 30.65,-28.76 34.89,-36.82 9.7,-18.5 -10.6,-1.64 11.91,-35.12l38.79 -25.61 14.94 -38.52 -9.45 -15.21c-43.56,20.43 -21.25,34.68 -71.28,50.2l-12.98 24.34 -24.63 20.48c-26.75,-33.08 -18.99,-49.54 -20.27,-91.94l-23.25 14.03z"/>
  <path class="fil84" d="M4172.2 3400.22c36.59,52.87 118.72,64.93 166.52,105.98 60.94,17.16 138.1,70.38 199.65,42.65 -16.88,-41.23 -172.62,-33.67 -224.86,-107.25l5.77 -18.61c-55.6,1.14 -44.87,3.59 -91.51,-20.82l-41.51 -20.56c3.16,22.84 8.36,17.04 -14.07,18.61z"/>
  <path class="fil39" d="M636.03 5457.91c30.12,43.46 14.73,110.38 12.17,162.41l22.01 -66.52c7.64,-203.16 -42.04,-176.8 -96.99,-336.45 -38.6,-39.27 -2.85,-30.92 -57.74,-52.93 15.83,102.55 113.51,214.86 120.54,293.5z"/>
  <path class="fil61" d="M7246.44 4025.52c34.58,-53.35 52.17,-109.75 95.99,-167.48 44.55,-58.69 62.81,-112.74 95.32,-157.37l72.63 -202.9c-76.63,44.95 -43.42,68.79 -65.98,140.41 -46.85,148.71 -154.23,199.17 -212.68,365.27l14.73 22.08z"/>
  <path class="fil72" d="M4099.27 3223.83l72.56 -19.57c-51.92,-38.89 -69.1,2.75 -89.91,-60.39 -76.72,-69.04 -46.57,-148.35 -177.73,-196.67l-14.76 9.18c23.67,32.19 27.68,36.45 58.89,59.64 46.04,34.2 25.95,31.06 51.24,76.82 18.17,32.89 98.43,127.62 99.72,130.98z"/>
  <path class="fil80" d="M3612.75 1892.06l21.09 4 6.53 31.31 11.51 -4.82c33.74,-142.32 155.54,-148.02 159.98,-196.36 -28.19,-21.89 -92.93,15.69 -121.2,33.79 -49.48,31.69 -57.99,80.89 -77.91,132.08z"/>
  <path class="fil39" d="M367.55 2640.37c-34.35,11.79 -44.19,8.6 -55.16,42.13 88.13,67.85 207.71,-93.06 141.52,-195.67 -23.28,51.12 -46.22,125.48 -86.36,153.54z"/>
  <path class="fil78" d="M1432.09 4433.21c-14.79,33.13 -109.18,68.9 -139.38,131.93l49.39 -27.8c12.55,55.77 -4.47,36.04 -46.8,66.05 53.35,-12.26 36.3,-4.31 62.36,-44.15 31.59,-48.28 29.58,-22.61 72.57,-45.56 57.48,-30.68 -27.43,-31.83 141,-66.45l-19.79 -27.09 -70.06 8.91 -49.29 4.15z"/>
  <path class="fil50" d="M5847 5350.26l-59.65 44.24c55.64,-0.46 36.32,2.97 79.22,-28.62 83.16,-56.87 42.81,-12.75 112.78,-95.89 32.69,-38.85 31.6,-17.04 42.18,-69.23 9.59,-47.32 10.93,-50.42 25.19,-96.18 -42.1,16.64 -53.83,76.12 -94.33,127.72 -47.24,60.21 -25.57,74.47 -105.39,117.95z"/>
  <path class="fil66" d="M4318.15 157.33c88.74,26.4 92.63,-10.75 155.08,-29.91 64.36,-19.74 75.44,7.5 158.8,-39.18l13.42 -42.99c-58.88,10.07 -112.55,35.18 -177.3,51.34 -32.58,8.12 -136.24,39.88 -150.01,60.74z"/>
  <path class="fil85" d="M3776.84 3276.23c74.5,0 91.6,44.42 98.07,114.37 6.68,72.06 15.49,125.57 24.63,196.12l-16.45 6.93 1.94 2.09 24.23 1.01c22.52,-22.03 -2.1,-74.54 -6.59,-105.1 -4.76,-59.25 -18.89,-200.5 -6.54,-251.12l-11.46 -22.09c-39.38,8.54 -78.59,30.1 -107.83,57.78z"/>
  <path class="fil86" d="M2982.69 2822.32l35.85 293.16 28.82 35.1c-11.49,-165.41 -88.08,-454.67 -50.87,-606.75 -1.08,-29.45 6.68,-23.51 -21.94,-19.43 13.41,80.11 -16.65,175.43 8.13,297.93z"/>
  <path class="fil61" d="M4371.38 1367.7c44.63,46.25 126.95,21.46 188.43,21.12 62.59,-0.34 124.49,2.52 186.8,2.37 -44.01,-9.17 -204.2,-5.12 -222.08,-21.81 52.72,-22.42 265.71,-3.52 330.79,3.49 -47.59,-63.3 -396.68,-10.58 -483.93,-5.16z"/>
  <path class="fil57" d="M3512.18 2997.44c27.01,61.95 77.92,297.01 123.92,321.83 15.02,-23.7 -5.66,-58.92 -14.38,-90.53l-56.49 -159.94c-15.06,-35.7 -22.43,-67.96 -12.36,-105.7l-25.1 -3.69 -1.83 9.92 -17.43 -16.14 3.68 44.27z"/>
  <path class="fil87" d="M5683.05 2846.7l2.2 52.4 -12.11 116.03c110.88,-312.97 440.66,632.14 463.01,723.37 140.95,575.34 400.39,353.85 84.31,1045.67l224.84 -476.3 -762.25 -1461.17z"/>
  <path class="fil39" d="M7601.96 5469.84c64.11,-25.3 113.05,-112.72 146.34,-172.02 44.05,-108.2 131.65,-202.26 158.31,-310.44 -98.76,162.79 -196.19,326.5 -304.65,482.46z"/>
  <path class="fil45" d="M2618.33 5577.3l-84.08 147.42c2.9,43.57 -5.05,60.51 17.53,96.53 17.79,-45.81 112,-231.14 107.73,-256.04l-41.18 12.09z"/>
  <path class="fil47" d="M2854.49 3584.56c49.56,63.35 160.16,98.91 196.83,161.62 59.03,33.41 109.32,85.46 173.84,100.25l1.96 -17.12c-60.74,-39.71 -121.4,-83.7 -181.45,-125.1 -67.32,-46.41 -101.01,-91.24 -181.46,-129.85 1.06,14.81 4.67,11.79 -9.73,10.2z"/>
  <path class="fil84" d="M3538.54 2189.76c20.2,38.33 7.65,41.93 36.6,71.58l28.71 -20.39 7.98 -8.26c-80.98,-89.37 -28.01,-133.32 3.24,-224.34l-15.95 -5.25 2.02 -48.9c-15.97,24.53 -33.41,72.67 -50.73,105.45 -22.06,41.78 -22.87,84.58 -11.87,130.11z"/>
  <path class="fil53" d="M7279.48 2006.02l-42.1 -83.47 -33.73 -100.54 -11.85 -56.53 -45.58 -51.88c9.72,66.98 57.99,297.07 125.26,322.37l8.01 -29.95z"/>
  <path class="fil81" d="M3156.55 3870.92c27.12,19.33 120.13,49.71 154.1,50.13 -36.63,-36.58 -59.63,-32.67 -85.47,-74.61 -64.52,-14.79 -114.81,-66.84 -173.84,-100.25 -11.49,53.29 70.34,94.53 105.22,124.73z"/>
  <path class="fil88" d="M5605.75 5482.06c84.41,-23.03 112.74,-49.19 181.6,-87.56l59.65 -44.24c32.54,-55.44 57.27,-69.52 73.35,-139.14 -49.39,41.61 -33.92,55.05 -68.63,92.36 -33.92,36.45 -54.69,29.15 -90.74,48.83 -42.19,23.04 -27.73,46.61 -63.33,73.67 -36.44,27.71 -47.76,11.13 -91.9,56.08z"/>
  <path class="fil88" d="M1239.28 1439.03l3.06 14.56c84.5,-21.89 78.11,-57.34 171.21,-83.22 72.57,-20.15 116.68,-52.36 179.16,-88.09l-6.88 -23.6c-41.62,18.48 -142.24,77.53 -170.92,86.42 -113.33,35.12 -82.82,21.84 -175.63,93.92z"/>
  <path class="fil60" d="M4232.63 5432.43c35.6,52.17 143.73,117.48 205.89,96.11 31.93,-67.29 -9.53,-88.9 -62.46,-120.77 12.44,45.19 25.28,37.76 18.75,77.69 -50.63,10.69 -93.58,-40.21 -162.18,-53.04z"/>
  <path class="fil79" d="M4433.43 2456.17c48.99,12.41 55.25,20.36 105.58,2.02l13.78 -71.66c-60.84,-33.97 -52.49,3.3 -110.17,6.57l-21.13 -23.15 -13.28 24.21 25.23 62z"/>
  <path class="fil84" d="M7023.53 4284.32l-7.35 18.45c-27.38,44.23 -57.75,84.9 -83.51,129.26 -39.27,67.65 -67.27,27.15 -82.85,115.1 63.99,-40.66 218.58,-231.71 230.86,-303.79 -44.77,16.09 -18.37,13.07 -57.15,40.98z"/>
  <path class="fil35" d="M5389.9 1734.93l61.76 47.65 3.8 -13.07 26.29 3.09 -102.1 -104.97c-36.15,-13.9 -114.9,-63.23 -145.63,-57.92 5.11,38.51 118.61,90.64 155.88,125.22z"/>
  <path class="fil61" d="M4989.46 3080.6c-10.92,62.74 -91.94,191.11 -83.49,235.46 28.79,-5.34 31.78,-35.97 52.73,-64.74 18.12,-87.95 87.19,-176.63 102.58,-278.93 -17.05,14.17 2.78,22.84 -23.91,7.65 -19.31,49.23 -11.85,57.48 -47.91,100.55z"/>
  <path class="fil59" d="M8382 1160.47c60.36,49.39 126.7,31.41 170.52,143.21l28.61 45.43c-0.87,-78.64 -26.06,-77.58 -38.66,-145.45l-8.25 -16.35c-70.39,-41.75 -36.54,-35.02 -129.13,-38.12l-23.08 11.27z"/>
  <path class="fil50" d="M8090.1 2922.7l4.55 -0.78 -7.88 -37.79c-44.31,-20.56 -77.03,-38.12 -122.24,-19.64 -54.24,119.73 70.48,74.15 125.57,58.21z"/>
  <path class="fil33" d="M3623.86 3630.65c5.79,16.19 287.67,7.74 325.45,1.25l-34.11 -7.58 -30.16 -28.58 -1.94 -2.09 -113.56 11.64 -45.18 -7.97 -100.5 33.32z"/>
  <path class="fil79" d="M6058.71 2218.77c-25.9,-31.92 -218.64,-175.5 -255.86,-190.82 37.42,67.75 25.64,19.75 41.65,89.38 57.98,26.06 44.55,-1.54 100.49,48.1 42.34,37.56 54.49,51.88 113.72,53.34z"/>
  <path class="fil79" d="M7185.2 2692.71c68.03,24.04 61.6,10.27 86.64,-42.86 25.57,-54.27 27.14,-17.85 18.4,-61.35 -65.88,-16.73 -130.44,30.48 -105.03,104.21z"/>
  <path class="fil40" d="M3275.93 912.68c-42.24,-26.33 -92.12,-22.3 -140.71,-10.68 -72.24,99.04 123.98,85.83 140.71,10.68z"/>
  <path class="fil55" d="M6254.98 1844.83l-15.8 -36.7c-53.6,-9.51 -104.88,1.49 -135.43,-35.84 -25.99,-31.77 -37.11,-82.96 -72.04,-98.21 -4.52,47.47 20.37,101.01 56.55,134.3 25.82,23.75 126.06,32.36 166.72,36.46z"/>
  <path class="fil59" d="M5255.56 5671.6c58.23,14.21 222.89,-20.1 198.84,-105.53 -48.54,12.52 -166.72,70.63 -198.84,105.53z"/>
  <path class="fil53" d="M4568.37 2387.43c26.82,13.56 80.26,39.47 102.55,56.25 34.26,25.8 45.12,49.63 87.49,75.68l-30.29 -55.12 37.22 4.61c-43.02,-51.1 -98.05,-86.85 -160.05,-112.74l-27.21 -0.29 -9.7 31.62z"/>
  <path class="fil89" d="M5506.06 2328.46c18.51,60.45 46.89,92.93 61.2,160.32l9.32 14.71 53.73 -2.61 -33.86 -96.44 -72.86 -97.26c6.06,35.01 8.86,13.76 -17.53,21.28z"/>
  <path class="fil61" d="M4471.28 2906.44l-17.86 24.8 4.72 17.13 9.45 15.21c58.2,-32.75 33.84,-55.72 101.58,-87.49 29,-13.6 99.42,-45.96 109.11,-70.71l-31.03 0.82c-48.82,9.55 -152.6,58.83 -175.96,100.24z"/>
  <path class="fil90" d="M5236.4 2456.55l4.14 -45.87 41.79 -6.31 -79.06 -66.34c-44.34,13.26 -51.55,24.13 -57.12,66.72 18.33,30.36 53.92,41.72 90.26,51.81z"/>
  <path class="fil91" d="M5577.46 2996.28c50.44,-42.67 29.63,-57.37 67.24,-98.83l5.02 -70.65 23.63 4.93c-18.57,-44.27 -6.09,-55.34 -51.99,-63.84 -25.63,36.42 -5.88,51.71 -21.06,108.41 -10.82,40.4 -14.69,78.53 -22.85,119.97z"/>
  <path class="fil92" d="M4386.81 2834.14l41.31 87.83 25.3 9.27 17.86 -24.8c0.61,-80.03 7.38,-56.91 -43.19,-117.65l-43.85 -9.15 2.57 54.49z"/>
  <polygon class="fil47" points="4010.07,2994.65 4187.15,3047.37 4195.68,3038.16 4194.28,3020.76 4050.28,2966.04 4026.28,2945.26 3989.89,2938.78 3953.19,2945.65 "/>
  <path class="fil25" d="M4508.06 3029.38l-85.42 60.74c99.04,-30.91 48.89,1.52 118.66,2.23 54.91,-35.25 17.52,-28.29 50.97,-66.37 26.67,-30.36 29.4,-10.72 56.54,-55.79l-140.75 59.2z"/>
  <path class="fil57" d="M7935.88 4865.72c5.92,-5.33 166.96,-244.83 171.21,-256.75 -70.27,38.55 -182.55,172.59 -171.21,256.75z"/>
  <path class="fil45" d="M7023.53 4284.32c38.78,-27.91 12.37,-24.89 57.15,-40.98 -0.11,-51.67 33.84,-75.04 67.28,-115.32l20.05 10.27 12.66 -9.16c-33.2,-18 -25.19,32.54 -24.06,-41.83 -81.45,43.79 -125.39,103.12 -133.08,197.01z"/>
  <path class="fil78" d="M3904.19 2947.2c131.16,48.32 101.01,127.63 177.73,196.67 -4.47,-21.74 -12.69,-43.41 -12.64,-65.42 0.05,-30.29 8.1,-20.76 7.93,-42.34l-67.14 -41.46 -56.88 -49 36.7 -6.87 -29.68 -7.03c-28.86,-0.87 -42.32,-9.97 -56.02,15.46z"/>
  <path class="fil45" d="M2768.53 5454.92l-29.73 13.69c11.46,47.61 148.43,17.79 184.91,2.66l-13.07 -29.92c-61.76,-8.02 -83.78,-6.36 -142.11,13.58z"/>
  <path class="fil51" d="M1839.16 7695.93c-44.46,-53.06 -71.86,-11.79 -103.1,-77.12 -21.53,-45.05 -28.72,-84.99 -85.92,-97.23 2.21,10.03 49.1,117.39 55.32,126.74 17.65,26.54 100.78,44.37 133.69,47.61z"/>
  <path class="fil53" d="M5451.67 1782.57c58.83,26.95 67.81,42.98 92.62,97.99 24.83,55.07 73.9,69.32 127.01,40.45l-86.51 -15.95c-22.57,-58.35 -23.73,-125.86 -103.03,-132.46l-26.29 -3.09 -3.8 13.07z"/>
  <path class="fil35" d="M6087.69 2232.04c58.23,81.83 137.23,105.74 170.78,155.46 18.07,0 12.55,4.15 13.9,-15.22 -19,-44.1 -111.64,-117.56 -150.93,-156.3 -13.2,29.81 29.91,37.97 -33.75,16.05z"/>
  <path class="fil36" d="M5512.49 2280.32l11.11 26.86 72.86 97.26 23.57 -9.87c-21.15,-56.96 -44.84,-136.12 -87.6,-178.21l7.53 52.43 -27.47 11.53z"/>
  <path class="fil47" d="M3796.63 3205.35l-79.54 77.81 7.44 47.7 16.4 0c8.63,-38.25 5.88,-29.39 35.92,-54.62 29.24,-27.68 68.44,-49.24 107.83,-57.78l-25.45 -24.97 -41.95 -2.04 -20.63 13.9z"/>
  <path class="fil65" d="M8253.75 4420.4c83.77,-17.9 101.09,-77.35 149.73,-136.81l4.15 -25.81 -43.23 2.85c-29.67,90.51 -94.82,94.71 -110.65,159.78z"/>
  <path class="fil84" d="M4620.23 2075.64l17.86 7.45 42.56 -30.35 -87.51 -20.48c-42.38,-0.82 -141.71,-9.8 -168.25,19.8 40.65,23.2 140.32,-2.18 195.34,23.58z"/>
  <path class="fil33" d="M2456.44 3063.31l0.73 -67.26 18.71 -16.26c3.12,-47.33 24.25,-81.45 48.67,-121.95 -27.39,-10.42 -23.96,24.46 -18.98,-26.16 -20.01,19.57 -55.69,72.49 -67.46,98.74 -12.31,27.45 2.92,110.68 18.32,132.88z"/>
  <path class="fil33" d="M1481.38 4429.06l70.06 -8.91 19.79 27.09 1.71 -0.3c43.14,-8.22 78.58,-11.84 94.66,-51.16 -34.4,-28.44 -51.19,-16.42 -97.35,-10.26 -42.03,14.78 -55.77,13.51 -88.86,43.55z"/>
  <path class="fil48" d="M6848.53 3454.3c64.38,-43.75 135.33,-134.25 148.83,-215.15l-27.39 2.07c-28.09,87.21 -105.32,146.18 -121.44,213.08z"/>
  <path class="fil84" d="M4545.21 3410.4c40.59,14.4 106.16,11.17 146.45,-5.47 56,-23.11 94.97,-15.4 143,-39.99 -60.75,-3.52 -242.24,20.33 -289.45,45.46z"/>
  <path class="fil78" d="M4433.43 2456.17l-25.23 -62 13.28 -24.21c25.34,-34.83 100.19,-30.36 141.38,-23.41 -100.39,-82.45 -280.46,46.3 -129.44,109.63z"/>
  <path class="fil65" d="M5168.31 2663.18c10.46,105.02 10.78,131.85 1.38,237.06 25.86,-63.95 3.57,-106.49 22.6,-167.11 27.48,37.27 7.68,149.59 4.33,200.72 24.71,-80.11 27.54,-216.49 -4.17,-293.41l-24.13 22.75z"/>
  <path class="fil61" d="M4099.27 3223.83l-60.85 31.83 -14.69 13.8 20.23 22.72c54.95,-49.54 130.42,-41.09 184.38,-105.56 -36.02,7.38 -6.12,14.35 -43.38,-5.79l-13.13 23.43 -72.56 19.57z"/>
  <path class="fil62" d="M3621.72 3228.74c66.42,-23.51 31.35,-45.17 116.32,-33.65 -80.67,-46.85 -100.71,4.24 -152.92,-98.57l2.26 -10.67c-10.11,-32.44 5.63,-7.11 -22.15,-17.05l56.49 159.94z"/>
  <path class="fil62" d="M4386.86 2998.57c50.02,-15.52 27.72,-29.77 71.28,-50.2l-4.72 -17.13 -25.3 -9.27 -41.31 -87.83c24.1,107.3 0.71,66.46 -23.66,151.84l23.71 12.59z"/>
  <path class="fil76" d="M3884.67 3218.45l44.62 38.35 117.39 58.23 28.57 6.84 -31.29 -29.69 -20.23 -22.72c-47.04,-22.13 -118.71,-67 -164.52,-75.98l25.45 24.97z"/>
  <path class="fil57" d="M8116.56 4604.13c31.76,-32.67 126.01,-145.67 137.19,-183.74 -47.73,7.31 -113.7,120.11 -147.52,162.03l10.32 21.71z"/>
  <path class="fil35" d="M4421.48 2369.95l21.13 23.15c57.68,-3.26 49.33,-40.54 110.17,-6.57l15.59 0.89 9.7 -31.62 27.21 0.29 -42.42 -9.55c-41.19,-6.96 -116.04,-11.42 -141.38,23.41z"/>
  <polygon class="fil76" points="4758.41,2519.36 4762.73,2526.88 4807.34,2597.48 4818.31,2601.77 4822.59,2577.98 4831.33,2557.25 4806.13,2511.77 4765.34,2468.84 4728.12,2464.23 "/>
  <path class="fil25" d="M6740.24 3738.02c52.44,-56.82 66.04,-130.93 70.61,-206.37 -45,42.09 -68.12,144.13 -70.61,206.37z"/>
  <path class="fil53" d="M4183.26 3133.94l15.78 39.21 -14.07 7.68c37.26,20.14 7.36,13.17 43.38,5.79 35.82,-19.86 52.59,-20.76 77.74,-54.38 -28.57,-4.49 -24.89,4.86 -23.67,-17.19l-99.16 18.89z"/>
  <path class="fil61" d="M4187.15 3047.37c15.7,47.68 16.71,41.76 -3.9,86.57l99.16 -18.89 10.91 -24.71c-60.63,-7.15 -46.48,-22.1 -97.64,-52.19l-8.53 9.21z"/>
  <path class="fil93" d="M4227.78 3402.16c46.63,24.42 35.9,21.96 91.51,20.82l21.32 1.37 22.94 -23.18c-29.39,-30.46 -81.61,-26.05 -126.58,-25.78l-9.18 26.77z"/>
  <path class="fil90" d="M3225.68 3445.1l16.22 41.45 75.73 74.69c-2.14,-57.29 -42.69,-122.37 -90.66,-152.44l-1.29 36.3z"/>
  <path class="fil51" d="M1169.05 1485.79c-28.42,76.95 -55.53,27.29 -67.39,97.39 43.77,-16.14 121.42,-85.85 140.68,-129.59l-3.06 -14.56 -70.23 46.76z"/>
  <path class="fil57" d="M3310.64 3921.04c39.33,3.45 36.47,8.58 71.14,30.92l21.13 -11.41 -175.78 -111.23 -1.96 17.12c25.85,41.94 48.85,38.03 85.47,74.61z"/>
  <path class="fil48" d="M7009.61 1534.26c-29.25,-54.73 -50.75,-36.23 -92.98,-63.61 -49.08,-31.81 -40.84,-40.07 -109.74,-46.22 53.16,49.91 132.55,87.09 202.71,109.83z"/>
  <path class="fil61" d="M1292.7 4565.14l-67.66 58.68c11.93,28.05 -20.55,23.15 35.55,20.32l34.7 -40.74c42.33,-30.01 59.35,-10.29 46.8,-66.05l-49.39 27.8z"/>
  <path class="fil79" d="M5275.66 2013.45c2.34,-28.74 -8.3,-12.89 14.21,-23.58l-30.96 -34.63c-43.31,-18.55 -64.76,-49.96 -109.57,-21.04l126.33 79.25z"/>
  <path class="fil61" d="M4446.24 3022.82c-29.09,17.55 -5.29,15.76 -32.39,4.88 -22.51,33.48 -2.2,16.62 -11.91,35.12 -4.24,8.06 -24.16,24.8 -34.89,36.82l55.58 -9.53 85.42 -60.74c-56.62,12.26 -18.98,10.15 -27.23,-21.12l-34.59 14.56z"/>
  <path class="fil65" d="M3724.02 5192.81l57.16 3.92c-11.34,-22.71 -113.04,-69.33 -145.25,-82.1l-22.47 31.65c40.07,3.56 79.21,21.49 110.56,46.52z"/>
  <path class="fil68" d="M3193.59 3432.02c6.36,3.05 25.45,9.69 32.08,13.08l1.29 -36.3 -58.32 -87.42 -11.84 14.81 -22.94 -18.96 59.73 114.79z"/>
  <polygon class="fil63" points="4807.34,2597.48 4849.62,2702.54 4869.11,2703.42 4882.11,2673.88 4858.5,2629.69 4822.59,2577.98 4818.31,2601.77 "/>
  <path class="fil84" d="M3724.52 3330.85l-7.44 -47.7 79.54 -77.81 -55.69 9.59c-37.76,46.2 -64.31,81.03 -24.18,135.99l7.77 -20.08z"/>
  <path class="fil47" d="M5454.47 3296.09l-37.31 83.22c43.15,-30.22 77.97,-51.58 92.28,-104.2l-12.66 -33.63c-16.37,37.7 -7.51,31.97 -42.31,54.6z"/>
  <path class="fil94" d="M3303.04 3584.47l-61.14 -97.92 -16.22 -41.45c-6.63,-3.39 -25.72,-10.03 -32.08,-13.08 11.15,61.32 54.68,121.82 109.45,152.45z"/>
  <polygon class="fil61" points="4737.06,2120.42 4745.06,2079.97 4680.65,2052.74 4638.09,2083.09 "/>
  <path class="fil57" d="M4379.3 2830.85c-30.86,-31.89 -32.68,-65.16 -63.92,-80.88 -2.97,39.62 16.62,115.22 58.99,119.72l4.92 -38.84z"/>
  <path class="fil38" d="M5454.47 3296.09c34.79,-22.63 25.94,-16.9 42.31,-54.6l40.43 -65.19 -2.54 -30.82c-43.04,33.26 -60.75,99.43 -80.2,150.62z"/>
  <path class="fil31" d="M4376.75 5401.18c-12.5,-59.44 -35.18,-64.11 -93.3,-71.2 33.44,59.59 33.12,45.31 93.3,71.2z"/>
  <path class="fil57" d="M4305.72 2965.49l23.25 -14.03c1.28,42.4 -6.48,58.85 20.27,91.94l24.63 -20.48 -28.9 -11.46c-4.86,-54.15 28.33,-85.69 -20.46,-100.59l-18.8 54.63z"/>
  <path class="fil48" d="M4661.98 2961.58l-0.25 24.1 45.57 -1.47c24.44,-39.89 5.49,-23.67 15.54,-49.48 4.92,-12.66 15.79,-20.51 26.39,-45.95l-87.24 72.8z"/>
  <polygon class="fil53" points="3601.13,1954.2 3599.11,2003.1 3615.06,2008.35 3640.37,1927.37 3633.84,1896.05 3612.75,1892.06 "/>
  <path class="fil62" d="M1888.89 1018.28c47.85,-22.34 102.43,-60.17 119.51,-111 -57.5,37.46 -83.63,48.58 -119.51,111z"/>
  <polygon class="fil61" points="5537.21,3176.3 5496.77,3241.49 5509.44,3275.12 5584.83,3167.11 5582.21,3152.03 5544.58,3204.07 "/>
  <path class="fil63" d="M4078.79 3349.89l93.41 50.33c22.43,-1.57 17.23,4.23 14.07,-18.61l-111.02 -59.73 3.54 28.01z"/>
  <path class="fil65" d="M3133.86 3317.24l22.94 18.96 11.84 -14.81c-24.46,-43.37 -21.58,-62.46 -68.62,-83.79 5.68,39.93 9.13,48.05 33.84,79.64z"/>
  <path class="fil42" d="M4882.11 2673.88l20.42 37.2 50.83 12.11c-25.52,-46.27 -48.34,-68.2 -94.86,-93.49l23.61 44.19z"/>
  <path class="fil65" d="M2077.79 3750.51c28.69,31.35 81.79,57.93 120.61,35.97l-102.3 -50.11c1.7,24.66 6.83,18.83 -18.31,14.14z"/>
  <path class="fil47" d="M2024.77 3654.84c7.06,62.84 26.26,46.27 53.02,95.67 25.14,4.68 20,10.51 18.31,-14.14l-63.23 -92.01 -8.1 10.49z"/>
  <path class="fil47" d="M7080.68 4243.34l87.33 -105.05 -20.05 -10.27c-33.44,40.28 -67.39,63.65 -67.28,115.32z"/>
  <path class="fil47" d="M2727.41 3442.04l49.95 74.97 15.74 0c-0.71,-24.78 -6.91,-21.13 16.21,-13.98 -24.53,-31.49 -35.88,-49.52 -73.06,-66.37l-8.83 5.38z"/>
  <path class="fil84" d="M5009.75 3323.86l37.94 -0.2 57.36 -70.39c-57.49,21.14 -56.43,24.61 -95.3,70.6z"/>
  <path class="fil38" d="M6173.03 2243.93c45.62,35.92 57.08,20.46 45.81,-31.83 -24.91,-0.29 -37.92,-15.5 -45.81,31.83z"/>
  <polygon class="fil53" points="4737.06,2120.42 4777.76,2133.12 4808,2108.8 4745.06,2079.97 "/>
  <path class="fil95" d="M5037.4 2754.5c11.36,-41.38 15.13,-39.3 -17.94,-63.11 -42.33,24.01 -16.55,56.25 17.94,63.11z"/>
  <path class="fil47" d="M7156.61 4087.31c-1.13,74.37 -9.13,23.82 24.06,41.83l26.91 -41.5 -11.49 -20.27 -39.49 19.94z"/>
  <path class="fil45" d="M4805.42 2810.1l5.83 28.74 52.82 -11.65c-7.39,-40.86 0.38,-22.99 -25.62,-39.33l-6.74 2.83 -26.29 19.41z"/>
  <polygon class="fil45" points="4849.62,2702.54 4854.94,2727.37 4891.04,2747.13 4902.53,2711.08 4882.11,2673.88 4869.11,2703.42 "/>
  <path class="fil77" d="M47.46 3191.14l85.68 -132.4c-51.09,39.68 -78.96,67.69 -85.68,132.4z"/>
  <path class="fil76" d="M2854.49 3584.56c14.4,1.59 10.79,4.62 9.73,-10.2l-54.92 -71.33c-23.11,-7.15 -16.92,-10.8 -16.21,13.98l61.4 67.55z"/>
  <path class="fil47" d="M3057.01 3205.6l43.02 32c-4.62,-37.94 -22.86,-63.56 -52.66,-87.02l9.64 55.02z"/>
  <polygon class="fil57" points="5644.71,2897.45 5659.75,2856.8 5685.25,2899.1 5683.05,2846.7 5673.36,2831.73 5649.73,2826.8 "/>
  <path class="fil82" d="M7404.39 2320.03c-11.54,-43.95 -12.37,-60.51 -43.69,-94.39 2.07,48.76 6.29,62.22 43.69,94.39z"/>
  <path class="fil45" d="M7565.47 5356.82c7.2,-32.02 8.63,-44.39 -32.27,-41.9 -5.43,35.23 -3.34,42.09 32.27,41.9z"/>
  <path class="fil68" d="M3752.38 1372.24l-6.52 34.35c45.96,9.59 28.44,18.22 46.87,-18.65l-40.36 -15.7z"/>
  <polygon class="fil84" points="4046.24,3352.86 4078.79,3349.89 4075.25,3321.88 4046.68,3315.03 "/>
  <path class="fil84" d="M3430.38 5039.67c27.67,19.62 25.32,26.28 55.5,11.74 -28.52,-31.15 -23.58,-26.47 -55.5,-11.74z"/>
  <polygon class="fil60" points="7077.21,5178.59 7116.9,5178.14 7119.83,5130.28 "/>
  <path class="fil65" d="M4315.39 2749.97c-7.86,-38.45 6.1,-23.3 -24.16,-41.57 -21.33,36.74 -7.62,33.27 24.16,41.57z"/>
  <path class="fil51" d="M1650.15 7521.58l-17.17 -37.03 -30.39 -2.15c17.28,32.93 12.13,29.28 47.56,39.18z"/>
  <path class="fil78" d="M3274.63 1988.61c33.05,-18.03 30.41,0.09 10.34,-38.13 -26.3,16.76 -40.11,1.86 -10.34,38.13z"/>
  <path class="fil67" d="M2354.49 4221.26l13.41 -36.21c-41.32,-5.58 -8.97,-10.15 -42.69,6.88l29.28 29.33z"/>
  <path class="fil20" d="M3043.65 3869.17c46.8,10.5 51.04,6.73 22.91,-34.1l-22.91 34.1z"/>
  <path class="fil81" d="M4269.92 7974.2c-0.29,-33.82 18.09,-28 -26.85,-26.58 -1.97,34.41 -11.18,27.91 26.85,26.58z"/>
  <path class="fil76" d="M4777.76 2133.12l9.06 -1.45c70.96,8.7 25.13,10.93 37.33,-24.16l-16.16 1.3 -30.24 24.32z"/>
  <polygon class="fil62" points="7038.89,5211.91 7075.25,5210.77 7077.21,5178.59 "/>
  <path class="fil68" d="M2149.68 6764.24c19.08,32.69 -2.61,18 27.81,17.28 -0.22,-32.96 5.21,-27.77 -27.81,-17.28z"/>
  <polygon class="fil82" points="5022.57,2790.73 5055.59,2813.98 5064.37,2769.27 5043.47,2793.96 "/>
  <path class="fil84" d="M4413.85 3027.71c27.1,10.88 3.3,12.66 32.39,-4.88l6.4 -20.72 -38.79 25.61z"/>
  <path class="fil84" d="M7237.38 1922.55c-8.4,-39.13 -10.56,-69.28 -33.73,-100.54l33.73 100.54z"/>
  <polygon class="fil57" points="3343.53,7516.25 3343.35,7490.41 3311.59,7506.22 "/>
  <path class="fil61" d="M1305.58 7119.83c-27.52,-10.22 -3.91,-18.76 -30.06,8.59 32.41,5.68 9.93,17.84 30.06,-8.59z"/>
  <polygon class="fil76" points="2727.41,3442.04 2736.24,3436.67 2729.56,3420.81 2711.32,3425.48 "/>
  <polygon class="fil45" points="2795.54,4661.98 2811.95,4646.12 2790.22,4633.51 "/>
  <polygon class="fil61" points="3896.13,3240.54 3929.29,3256.8 3884.67,3218.45 "/>
  <path class="fil84" d="M6385.49 5414.58c-0.09,2.5 28.59,18.4 20.26,0.48 -6.6,-14.18 -20.14,-3.67 -20.26,-0.48z"/>
  <path class="fil80" d="M2843.44 3518.62c0.01,3.66 11.87,12.82 17.95,-0.43 8.11,-17.66 -17.97,-1.95 -17.95,0.43z"/>
  <polygon class="fil65" points="997.42,7165.43 970.61,7134.1 "/>
  <polygon class="fil82" points="5292.93,3471.12 5327.42,3456.88 "/>
  <polygon class="fil39" points="4453.42,2931.24 4471.28,2906.44 "/>
 </g>
</svg>
